<svg xmlns="http://www.w3.org/2000/svg" viewBox="0 0 750 500"><g id="freepik--background-simple--inject-33"><g><path d="M743.21,267.27c4.32-85.15-42.89-163.78-116.97-198.47-25.88-12.12-55.27-22.33-82.16-23.29-69.18-2.48-155.66,29.76-211.48,41.33-55.82,11.57-139.94-35.55-204.4-18.19C63.75,86.01-7.72,186.43,19.35,295.15c27.08,108.72,96.19,159.54,166.15,166.15,69.97,6.61,150.98-60.17,208-50.75,57.03,9.42,74.32,59.84,185.95,57.36,111.63-2.48,157.23-102.5,163.52-196.74,.09-1.31,.16-2.61,.23-3.91Z" style="fill:#FF81AE;"></path><path d="M743.21,267.27c4.32-85.15-42.89-163.78-116.97-198.47-25.88-12.12-55.27-22.33-82.16-23.29-69.18-2.48-155.66,29.76-211.48,41.33-55.82,11.57-139.94-35.55-204.4-18.19C63.75,86.01-7.72,186.43,19.35,295.15c27.08,108.72,96.19,159.54,166.15,166.15,69.97,6.61,150.98-60.17,208-50.75,57.03,9.42,74.32,59.84,185.95,57.36,111.63-2.48,157.23-102.5,163.52-196.74,.09-1.31,.16-2.61,.23-3.91Z" style="fill:#fff; opacity:.8;"></path></g></g><g id="freepik--Floor--inject-33"><ellipse cx="372.65" cy="412.68" rx="337" ry="59.64" style="opacity:.3;"></ellipse></g><g id="freepik--Clouds--inject-33"><path d="M321.11,25.89s-5.59-9.15-14.23-8.64c-8.64,.51-11.69,6.1-14.23,10.17s-3.56,1.53-10.17-.51c-6.61-2.03-9.66,1.53-11.18,5.08-1.53,3.56-1.02,1.02-7.12,0-6.1-1.02-6.26,2.62-10.17,4.58-3.18,1.59-3.87,1.66-7.39,.71-4.39-1.19-5.83-.2-6.84,1.84h103.12s-1.96-8.13-6.53-10.17c-4.58-2.03-10.68,2.03-15.25-3.05Z" style="fill:none; opacity:.3; stroke:#000; stroke-miterlimit:10;"></path><path d="M704.09,29.78s-3.95-6.46-10.05-6.1c-6.1,.36-8.25,4.31-10.05,7.18-1.79,2.87-2.51,1.08-7.18-.36-4.66-1.44-6.82,1.08-7.89,3.59-1.08,2.51-.72,.72-5.02,0s-4.42,1.85-7.18,3.23c-2.25,1.12-2.73,1.17-5.22,.5-3.1-.84-4.11-.14-4.83,1.3h72.79s-1.38-5.74-4.61-7.18-7.54,1.44-10.77-2.15Z" style="fill:none; opacity:.3; stroke:#000; stroke-miterlimit:10;"></path><path d="M78.16,23.19s-3.11-5.09-7.92-4.81c-4.81,.28-6.51,3.4-7.92,5.66-1.41,2.26-1.98,.85-5.66-.28s-5.38,.85-6.22,2.83c-.85,1.98-.57,.57-3.96,0-3.4-.57-3.48,1.46-5.66,2.55-1.77,.89-2.15,.92-4.11,.39-2.44-.66-3.24-.11-3.81,1.02h57.39s-1.09-4.53-3.63-5.66c-2.55-1.13-5.94,1.13-8.49-1.7Z" style="fill:none; opacity:.3; stroke:#000; stroke-miterlimit:10;"></path><path d="M447.57,33.6s-1.62-2.65-4.13-2.51-3.39,1.77-4.13,2.95c-.74,1.18-1.03,.44-2.95-.15-1.92-.59-2.8,.44-3.24,1.47-.44,1.03-.29,.29-2.06,0-1.77-.29-1.81,.76-2.95,1.33-.92,.46-1.12,.48-2.14,.2-1.27-.34-1.69-.06-1.98,.53h29.9s-.57-2.36-1.89-2.95c-1.33-.59-3.1,.59-4.42-.88Z" style="fill:none; opacity:.3; stroke:#000; stroke-miterlimit:10;"></path></g><g id="freepik--City--inject-33"><g><g><polyline points="74.48 66 74.48 156.76 86.4 156.76 86.4 269.51 100.15 269.51 100.15 101.2 125.82 101.2 125.82 33 167.07 33 167.07 158.59 182.66 158.59 182.66 108.63 217.49 108.63 217.49 119.63 247.28 119.63 247.28 268.14 259.2 268.14 259.2 241.1 291.74 241.1 291.74 267.68 307.33 267.68 307.33 77.97 360.04 77.97 360.04 259.43 375.16 259.43" style="fill:none; stroke:#263238; stroke-miterlimit:10;"></polyline><polyline points="66.54 66 74.48 66 74.48 60.05 65.74 60.05" style="fill:none; stroke:#263238; stroke-miterlimit:10;"></polyline><rect x="100" y="101.2" width="25.82" height="3.02" style="fill:none; stroke:#263238; stroke-miterlimit:10;"></rect><rect x="125.7" y="33" width="41.37" height="2.93" style="fill:none; stroke:#263238; stroke-miterlimit:10;"></rect><rect x="185.94" y="102.4" width="6.02" height="6.22" style="fill:none; stroke:#263238; stroke-miterlimit:10;"></rect><rect x="204.61" y="105.01" width="3.01" height="3.61" style="fill:none; stroke:#263238; stroke-miterlimit:10;"></rect><rect x="217.49" y="119.63" width="29.89" height="3.65" style="fill:none; stroke:#263238; stroke-miterlimit:10;"></rect><rect x="307.33" y="75.24" width="52.7" height="2.72" style="fill:none; stroke:#263238; stroke-miterlimit:10;"></rect><rect x="320.87" y="69.82" width="20.88" height="5.42" style="fill:none; stroke:#263238; stroke-miterlimit:10;"></rect><polyline points="337.34 70.02 337.34 65 352.6 65 352.6 75.04" style="fill:none; stroke:#263238; stroke-miterlimit:10;"></polyline><polyline points="236.76 118.13 236.76 77.56 285.06 77.56 285.06 111.18 301.68 111.18 301.68 53.98 363.67 53.98 363.67 123.16 367.62 123.16" style="fill:none; stroke:#263238; stroke-miterlimit:10;"></polyline><polyline points="201.98 98.04 201.98 53.21 169.13 53.21" style="fill:none; stroke:#263238; stroke-miterlimit:10;"></polyline><polyline points="98.41 109.24 87.59 109.24 87.59 77.94 77.16 77.94" style="fill:none; stroke:#263238; stroke-miterlimit:10;"></polyline><g><rect x="128.94" y="41.62" width="4.15" height="8.12" style="fill:none; stroke:#263238; stroke-miterlimit:10;"></rect><rect x="136.41" y="41.62" width="4.15" height="8.12" style="fill:none; stroke:#263238; stroke-miterlimit:10;"></rect><rect x="143.87" y="41.62" width="4.15" height="8.12" style="fill:none; stroke:#263238; stroke-miterlimit:10;"></rect><rect x="151.33" y="41.62" width="4.15" height="8.12" style="fill:none; stroke:#263238; stroke-miterlimit:10;"></rect><rect x="158.8" y="41.62" width="4.15" height="8.12" style="fill:none; stroke:#263238; stroke-miterlimit:10;"></rect></g><g><rect x="128.94" y="55.34" width="4.15" height="8.12" style="fill:none; stroke:#263238; stroke-miterlimit:10;"></rect><rect x="136.41" y="55.34" width="4.15" height="8.12" style="fill:none; stroke:#263238; stroke-miterlimit:10;"></rect><rect x="143.87" y="55.34" width="4.15" height="8.12" style="fill:none; stroke:#263238; stroke-miterlimit:10;"></rect><rect x="151.33" y="55.34" width="4.15" height="8.12" style="fill:none; stroke:#263238; stroke-miterlimit:10;"></rect><rect x="158.8" y="55.34" width="4.15" height="8.12" style="fill:none; stroke:#263238; stroke-miterlimit:10;"></rect></g><g><rect x="128.94" y="69.05" width="4.15" height="8.12" style="fill:none; stroke:#263238; stroke-miterlimit:10;"></rect><rect x="136.41" y="69.05" width="4.15" height="8.12" style="fill:none; stroke:#263238; stroke-miterlimit:10;"></rect><rect x="143.87" y="69.05" width="4.15" height="8.12" style="fill:none; stroke:#263238; stroke-miterlimit:10;"></rect><rect x="151.33" y="69.05" width="4.15" height="8.12" style="fill:none; stroke:#263238; stroke-miterlimit:10;"></rect><rect x="158.8" y="69.05" width="4.15" height="8.12" style="fill:none; stroke:#263238; stroke-miterlimit:10;"></rect></g><g><rect x="128.94" y="82.77" width="4.15" height="8.12" style="fill:none; stroke:#263238; stroke-miterlimit:10;"></rect><rect x="136.41" y="82.77" width="4.15" height="8.12" style="fill:none; stroke:#263238; stroke-miterlimit:10;"></rect><rect x="143.87" y="82.77" width="4.15" height="8.12" style="fill:none; stroke:#263238; stroke-miterlimit:10;"></rect><rect x="151.33" y="82.77" width="4.15" height="8.12" style="fill:none; stroke:#263238; stroke-miterlimit:10;"></rect><rect x="158.8" y="82.77" width="4.15" height="8.12" style="fill:none; stroke:#263238; stroke-miterlimit:10;"></rect></g><g><rect x="128.94" y="96.49" width="4.15" height="8.12" style="fill:none; stroke:#263238; stroke-miterlimit:10;"></rect><rect x="136.41" y="96.49" width="4.15" height="8.12" style="fill:none; stroke:#263238; stroke-miterlimit:10;"></rect><rect x="143.87" y="96.49" width="4.15" height="8.12" style="fill:none; stroke:#263238; stroke-miterlimit:10;"></rect><rect x="151.33" y="96.49" width="4.15" height="8.12" style="fill:none; stroke:#263238; stroke-miterlimit:10;"></rect><rect x="158.8" y="96.49" width="4.15" height="8.12" style="fill:none; stroke:#263238; stroke-miterlimit:10;"></rect></g><g><rect x="128.94" y="110.21" width="4.15" height="8.12" style="fill:none; stroke:#263238; stroke-miterlimit:10;"></rect><rect x="136.41" y="110.21" width="4.15" height="8.12" style="fill:none; stroke:#263238; stroke-miterlimit:10;"></rect><rect x="143.87" y="110.21" width="4.15" height="8.12" style="fill:none; stroke:#263238; stroke-miterlimit:10;"></rect><rect x="151.33" y="110.21" width="4.15" height="8.12" style="fill:none; stroke:#263238; stroke-miterlimit:10;"></rect><rect x="158.8" y="110.21" width="4.15" height="8.12" style="fill:none; stroke:#263238; stroke-miterlimit:10;"></rect></g><g><g><rect x="103.49" y="110.21" width="4.15" height="8.12" style="fill:none; stroke:#263238; stroke-miterlimit:10;"></rect><rect x="110.96" y="110.21" width="4.15" height="8.12" style="fill:none; stroke:#263238; stroke-miterlimit:10;"></rect><rect x="118.42" y="110.21" width="4.15" height="8.12" style="fill:none; stroke:#263238; stroke-miterlimit:10;"></rect></g><g><rect x="103.49" y="123.54" width="4.15" height="8.12" style="fill:none; stroke:#263238; stroke-miterlimit:10;"></rect><rect x="110.96" y="123.54" width="4.15" height="8.12" style="fill:none; stroke:#263238; stroke-miterlimit:10;"></rect><rect x="118.42" y="123.54" width="4.15" height="8.12" style="fill:none; stroke:#263238; stroke-miterlimit:10;"></rect></g><g><rect x="103.49" y="136.87" width="4.15" height="8.12" style="fill:none; stroke:#263238; stroke-miterlimit:10;"></rect><rect x="110.96" y="136.87" width="4.15" height="8.12" style="fill:none; stroke:#263238; stroke-miterlimit:10;"></rect><rect x="118.42" y="136.87" width="4.15" height="8.12" style="fill:none; stroke:#263238; stroke-miterlimit:10;"></rect></g><g><rect x="103.49" y="150.21" width="4.15" height="8.12" style="fill:none; stroke:#263238; stroke-miterlimit:10;"></rect><rect x="110.96" y="150.21" width="4.15" height="8.12" style="fill:none; stroke:#263238; stroke-miterlimit:10;"></rect><rect x="118.42" y="150.21" width="4.15" height="8.12" style="fill:none; stroke:#263238; stroke-miterlimit:10;"></rect></g><g><rect x="103.49" y="163.54" width="4.15" height="8.12" style="fill:none; stroke:#263238; stroke-miterlimit:10;"></rect><rect x="110.96" y="163.54" width="4.15" height="8.12" style="fill:none; stroke:#263238; stroke-miterlimit:10;"></rect><rect x="118.42" y="163.54" width="4.15" height="8.12" style="fill:none; stroke:#263238; stroke-miterlimit:10;"></rect></g><g><rect x="103.49" y="176.87" width="4.15" height="8.12" style="fill:none; stroke:#263238; stroke-miterlimit:10;"></rect><rect x="110.96" y="176.87" width="4.15" height="8.12" style="fill:none; stroke:#263238; stroke-miterlimit:10;"></rect><rect x="118.42" y="176.87" width="4.15" height="8.12" style="fill:none; stroke:#263238; stroke-miterlimit:10;"></rect></g><g><rect x="103.49" y="190.2" width="4.15" height="8.12" style="fill:none; stroke:#263238; stroke-miterlimit:10;"></rect><rect x="110.96" y="190.2" width="4.15" height="8.12" style="fill:none; stroke:#263238; stroke-miterlimit:10;"></rect><rect x="118.42" y="190.2" width="4.15" height="8.12" style="fill:none; stroke:#263238; stroke-miterlimit:10;"></rect></g><g><rect x="103.49" y="203.53" width="4.15" height="8.12" style="fill:none; stroke:#263238; stroke-miterlimit:10;"></rect><rect x="110.96" y="203.53" width="4.15" height="8.12" style="fill:none; stroke:#263238; stroke-miterlimit:10;"></rect><rect x="118.42" y="203.53" width="4.15" height="8.12" style="fill:none; stroke:#263238; stroke-miterlimit:10;"></rect></g><g><rect x="103.49" y="216.87" width="4.15" height="8.12" style="fill:none; stroke:#263238; stroke-miterlimit:10;"></rect><rect x="110.96" y="216.87" width="4.15" height="8.12" style="fill:none; stroke:#263238; stroke-miterlimit:10;"></rect><rect x="118.42" y="216.87" width="4.15" height="8.12" style="fill:none; stroke:#263238; stroke-miterlimit:10;"></rect></g><g><rect x="103.49" y="230.2" width="4.15" height="8.12" style="fill:none; stroke:#263238; stroke-miterlimit:10;"></rect><rect x="110.96" y="230.2" width="4.15" height="8.12" style="fill:none; stroke:#263238; stroke-miterlimit:10;"></rect><rect x="118.42" y="230.2" width="4.15" height="8.12" style="fill:none; stroke:#263238; stroke-miterlimit:10;"></rect></g><g><rect x="103.49" y="243.53" width="4.15" height="8.12" style="fill:none; stroke:#263238; stroke-miterlimit:10;"></rect><rect x="110.96" y="243.53" width="4.15" height="8.12" style="fill:none; stroke:#263238; stroke-miterlimit:10;"></rect><rect x="118.42" y="243.53" width="4.15" height="8.12" style="fill:none; stroke:#263238; stroke-miterlimit:10;"></rect></g></g><g><g><rect x="170.05" y="165.08" width="4.15" height="8.12" style="fill:none; stroke:#263238; stroke-miterlimit:10;"></rect><rect x="177.51" y="165.08" width="4.15" height="8.12" style="fill:none; stroke:#263238; stroke-miterlimit:10;"></rect></g><g><rect x="170.05" y="178.42" width="4.15" height="8.12" style="fill:none; stroke:#263238; stroke-miterlimit:10;"></rect><rect x="177.51" y="178.42" width="4.15" height="8.12" style="fill:none; stroke:#263238; stroke-miterlimit:10;"></rect></g><g><rect x="170.05" y="191.75" width="4.15" height="8.12" style="fill:none; stroke:#263238; stroke-miterlimit:10;"></rect><rect x="177.51" y="191.75" width="4.15" height="8.12" style="fill:none; stroke:#263238; stroke-miterlimit:10;"></rect></g><g><rect x="170.05" y="205.08" width="4.15" height="8.12" style="fill:none; stroke:#263238; stroke-miterlimit:10;"></rect><rect x="177.51" y="205.08" width="4.15" height="8.12" style="fill:none; stroke:#263238; stroke-miterlimit:10;"></rect></g><g><rect x="170.05" y="218.41" width="4.15" height="8.12" style="fill:none; stroke:#263238; stroke-miterlimit:10;"></rect><rect x="177.51" y="218.41" width="4.15" height="8.12" style="fill:none; stroke:#263238; stroke-miterlimit:10;"></rect></g><g><rect x="170.05" y="231.74" width="4.15" height="8.12" style="fill:none; stroke:#263238; stroke-miterlimit:10;"></rect><rect x="177.51" y="231.74" width="4.15" height="8.12" style="fill:none; stroke:#263238; stroke-miterlimit:10;"></rect></g><g><rect x="170.05" y="245.08" width="4.15" height="8.12" style="fill:none; stroke:#263238; stroke-miterlimit:10;"></rect><rect x="177.51" y="245.08" width="4.15" height="8.12" style="fill:none; stroke:#263238; stroke-miterlimit:10;"></rect></g></g><g><rect x="128.94" y="123.93" width="4.15" height="8.12" style="fill:none; stroke:#263238; stroke-miterlimit:10;"></rect><rect x="136.41" y="123.93" width="4.15" height="8.12" style="fill:none; stroke:#263238; stroke-miterlimit:10;"></rect><rect x="143.87" y="123.93" width="4.15" height="8.12" style="fill:none; stroke:#263238; stroke-miterlimit:10;"></rect><rect x="151.33" y="123.93" width="4.15" height="8.12" style="fill:none; stroke:#263238; stroke-miterlimit:10;"></rect><rect x="158.8" y="123.93" width="4.15" height="8.12" style="fill:none; stroke:#263238; stroke-miterlimit:10;"></rect></g><g><rect x="128.94" y="137.65" width="4.15" height="8.12" style="fill:none; stroke:#263238; stroke-miterlimit:10;"></rect><rect x="136.41" y="137.65" width="4.15" height="8.12" style="fill:none; stroke:#263238; stroke-miterlimit:10;"></rect><rect x="143.87" y="137.65" width="4.15" height="8.12" style="fill:none; stroke:#263238; stroke-miterlimit:10;"></rect><rect x="151.33" y="137.65" width="4.15" height="8.12" style="fill:none; stroke:#263238; stroke-miterlimit:10;"></rect><rect x="158.8" y="137.65" width="4.15" height="8.12" style="fill:none; stroke:#263238; stroke-miterlimit:10;"></rect></g><g><rect x="128.94" y="151.37" width="4.15" height="8.12" style="fill:none; stroke:#263238; stroke-miterlimit:10;"></rect><rect x="136.41" y="151.37" width="4.15" height="8.12" style="fill:none; stroke:#263238; stroke-miterlimit:10;"></rect><rect x="143.87" y="151.37" width="4.15" height="8.12" style="fill:none; stroke:#263238; stroke-miterlimit:10;"></rect><rect x="151.33" y="151.37" width="4.15" height="8.12" style="fill:none; stroke:#263238; stroke-miterlimit:10;"></rect><rect x="158.8" y="151.37" width="4.15" height="8.12" style="fill:none; stroke:#263238; stroke-miterlimit:10;"></rect></g><g><rect x="128.94" y="165.08" width="4.15" height="8.12" style="fill:none; stroke:#263238; stroke-miterlimit:10;"></rect><rect x="136.41" y="165.08" width="4.15" height="8.12" style="fill:none; stroke:#263238; stroke-miterlimit:10;"></rect><rect x="143.87" y="165.08" width="4.15" height="8.12" style="fill:none; stroke:#263238; stroke-miterlimit:10;"></rect><rect x="151.33" y="165.08" width="4.15" height="8.12" style="fill:none; stroke:#263238; stroke-miterlimit:10;"></rect><rect x="158.8" y="165.08" width="4.15" height="8.12" style="fill:none; stroke:#263238; stroke-miterlimit:10;"></rect></g><g><rect x="128.94" y="178.8" width="4.15" height="8.12" style="fill:none; stroke:#263238; stroke-miterlimit:10;"></rect><rect x="136.41" y="178.8" width="4.15" height="8.12" style="fill:none; stroke:#263238; stroke-miterlimit:10;"></rect><rect x="143.87" y="178.8" width="4.15" height="8.12" style="fill:none; stroke:#263238; stroke-miterlimit:10;"></rect><rect x="151.33" y="178.8" width="4.15" height="8.12" style="fill:none; stroke:#263238; stroke-miterlimit:10;"></rect><rect x="158.8" y="178.8" width="4.15" height="8.12" style="fill:none; stroke:#263238; stroke-miterlimit:10;"></rect></g><g><rect x="128.94" y="192.52" width="4.15" height="8.12" style="fill:none; stroke:#263238; stroke-miterlimit:10;"></rect><rect x="136.41" y="192.52" width="4.15" height="8.12" style="fill:none; stroke:#263238; stroke-miterlimit:10;"></rect><rect x="143.87" y="192.52" width="4.15" height="8.12" style="fill:none; stroke:#263238; stroke-miterlimit:10;"></rect><rect x="151.33" y="192.52" width="4.15" height="8.12" style="fill:none; stroke:#263238; stroke-miterlimit:10;"></rect><rect x="158.8" y="192.52" width="4.15" height="8.12" style="fill:none; stroke:#263238; stroke-miterlimit:10;"></rect></g><g><rect x="128.94" y="206.24" width="4.15" height="8.12" style="fill:none; stroke:#263238; stroke-miterlimit:10;"></rect><rect x="136.41" y="206.24" width="4.15" height="8.12" style="fill:none; stroke:#263238; stroke-miterlimit:10;"></rect><rect x="143.87" y="206.24" width="4.15" height="8.12" style="fill:none; stroke:#263238; stroke-miterlimit:10;"></rect><rect x="151.33" y="206.24" width="4.15" height="8.12" style="fill:none; stroke:#263238; stroke-miterlimit:10;"></rect><rect x="158.8" y="206.24" width="4.15" height="8.12" style="fill:none; stroke:#263238; stroke-miterlimit:10;"></rect></g><g><rect x="128.94" y="219.96" width="4.15" height="8.12" style="fill:none; stroke:#263238; stroke-miterlimit:10;"></rect><rect x="136.41" y="219.96" width="4.15" height="8.12" style="fill:none; stroke:#263238; stroke-miterlimit:10;"></rect><rect x="143.87" y="219.96" width="4.15" height="8.12" style="fill:none; stroke:#263238; stroke-miterlimit:10;"></rect><rect x="151.33" y="219.96" width="4.15" height="8.12" style="fill:none; stroke:#263238; stroke-miterlimit:10;"></rect><rect x="158.8" y="219.96" width="4.15" height="8.12" style="fill:none; stroke:#263238; stroke-miterlimit:10;"></rect></g><g><rect x="128.94" y="233.68" width="4.15" height="8.12" style="fill:none; stroke:#263238; stroke-miterlimit:10;"></rect><rect x="136.41" y="233.68" width="4.15" height="8.12" style="fill:none; stroke:#263238; stroke-miterlimit:10;"></rect><rect x="143.87" y="233.68" width="4.15" height="8.12" style="fill:none; stroke:#263238; stroke-miterlimit:10;"></rect><rect x="151.33" y="233.68" width="4.15" height="8.12" style="fill:none; stroke:#263238; stroke-miterlimit:10;"></rect><rect x="158.8" y="233.68" width="4.15" height="8.12" style="fill:none; stroke:#263238; stroke-miterlimit:10;"></rect></g><g><rect x="128.94" y="247.78" width="4.15" height="8.12" style="fill:none; stroke:#263238; stroke-miterlimit:10;"></rect><rect x="136.41" y="247.78" width="4.15" height="8.12" style="fill:none; stroke:#263238; stroke-miterlimit:10;"></rect><rect x="143.87" y="247.78" width="4.15" height="8.12" style="fill:none; stroke:#263238; stroke-miterlimit:10;"></rect><rect x="151.33" y="247.78" width="4.15" height="8.12" style="fill:none; stroke:#263238; stroke-miterlimit:10;"></rect><rect x="158.8" y="247.78" width="4.15" height="8.12" style="fill:none; stroke:#263238; stroke-miterlimit:10;"></rect></g><line x1="125.82" y1="104.22" x2="125.82" y2="269.61" style="fill:none; stroke:#263238; stroke-miterlimit:10;"></line><line x1="189.22" y1="111.95" x2="189.22" y2="267.3" style="fill:none; stroke:#263238; stroke-miterlimit:10;"></line><line x1="197.34" y1="111.95" x2="197.34" y2="267.3" style="fill:none; stroke:#263238; stroke-miterlimit:10;"></line><line x1="205.45" y1="111.95" x2="205.45" y2="267.3" style="fill:none; stroke:#263238; stroke-miterlimit:10;"></line><line x1="213.57" y1="111.95" x2="213.57" y2="267.3" style="fill:none; stroke:#263238; stroke-miterlimit:10;"></line><line x1="221.69" y1="127.41" x2="221.69" y2="267.3" style="fill:none; stroke:#263238; stroke-miterlimit:10;"></line><line x1="229.8" y1="127.41" x2="229.8" y2="267.3" style="fill:none; stroke:#263238; stroke-miterlimit:10;"></line><line x1="237.92" y1="127.41" x2="237.92" y2="267.3" style="fill:none; stroke:#263238; stroke-miterlimit:10;"></line><line x1="60.56" y1="74.85" x2="71.75" y2="74.85" style="fill:none; stroke:#263238; stroke-miterlimit:10;"></line><line x1="60.56" y1="84.9" x2="71.75" y2="84.9" style="fill:none; stroke:#263238; stroke-miterlimit:10;"></line><line x1="60.56" y1="94.95" x2="71.75" y2="94.95" style="fill:none; stroke:#263238; stroke-miterlimit:10;"></line><line x1="60.56" y1="104.99" x2="71.75" y2="104.99" style="fill:none; stroke:#263238; stroke-miterlimit:10;"></line><line x1="60.56" y1="115.04" x2="71.75" y2="115.04" style="fill:none; stroke:#263238; stroke-miterlimit:10;"></line><line x1="60.56" y1="125.09" x2="71.75" y2="125.09" style="fill:none; stroke:#263238; stroke-miterlimit:10;"></line><line x1="60.56" y1="135.14" x2="71.75" y2="135.14" style="fill:none; stroke:#263238; stroke-miterlimit:10;"></line><line x1="60.56" y1="145.18" x2="71.75" y2="145.18" style="fill:none; stroke:#263238; stroke-miterlimit:10;"></line><line x1="60.56" y1="155.23" x2="71.75" y2="155.23" style="fill:none; stroke:#263238; stroke-miterlimit:10;"></line><line x1="60.56" y1="165.28" x2="71.75" y2="165.28" style="fill:none; stroke:#263238; stroke-miterlimit:10;"></line><line x1="60.56" y1="175.32" x2="71.75" y2="175.32" style="fill:none; stroke:#263238; stroke-miterlimit:10;"></line><line x1="60.56" y1="185.37" x2="71.75" y2="185.37" style="fill:none; stroke:#263238; stroke-miterlimit:10;"></line><line x1="60.56" y1="195.42" x2="71.75" y2="195.42" style="fill:none; stroke:#263238; stroke-miterlimit:10;"></line><line x1="60.56" y1="205.47" x2="71.75" y2="205.47" style="fill:none; stroke:#263238; stroke-miterlimit:10;"></line><line x1="60.56" y1="215.51" x2="71.75" y2="215.51" style="fill:none; stroke:#263238; stroke-miterlimit:10;"></line><line x1="60.56" y1="225.56" x2="71.75" y2="225.56" style="fill:none; stroke:#263238; stroke-miterlimit:10;"></line><line x1="60.56" y1="235.61" x2="71.75" y2="235.61" style="fill:none; stroke:#263238; stroke-miterlimit:10;"></line><line x1="60.56" y1="245.66" x2="71.75" y2="245.66" style="fill:none; stroke:#263238; stroke-miterlimit:10;"></line><line x1="60.56" y1="255.7" x2="71.75" y2="255.7" style="fill:none; stroke:#263238; stroke-miterlimit:10;"></line><line x1="60.56" y1="265.75" x2="71.75" y2="265.75" style="fill:none; stroke:#263238; stroke-miterlimit:10;"></line><line x1="60.56" y1="275.8" x2="71.75" y2="275.8" style="fill:none; stroke:#263238; stroke-miterlimit:10;"></line><rect x="309.02" y="137.84" width="48.69" height="4.64" style="fill:none; stroke:#263238; stroke-miterlimit:10;"></rect><rect x="309.02" y="129.74" width="48.69" height="4.64" style="fill:none; stroke:#263238; stroke-miterlimit:10;"></rect><rect x="309.02" y="121.64" width="48.69" height="4.64" style="fill:none; stroke:#263238; stroke-miterlimit:10;"></rect><rect x="309.02" y="113.53" width="48.69" height="4.64" style="fill:none; stroke:#263238; stroke-miterlimit:10;"></rect><rect x="309.02" y="105.43" width="48.69" height="4.64" style="fill:none; stroke:#263238; stroke-miterlimit:10;"></rect><rect x="309.02" y="97.33" width="48.69" height="4.64" style="fill:none; stroke:#263238; stroke-miterlimit:10;"></rect><rect x="309.02" y="89.23" width="48.69" height="4.64" style="fill:none; stroke:#263238; stroke-miterlimit:10;"></rect><rect x="309.02" y="81.13" width="48.69" height="4.64" style="fill:none; stroke:#263238; stroke-miterlimit:10;"></rect><rect x="309.02" y="145.96" width="48.69" height="4.64" style="fill:none; stroke:#263238; stroke-miterlimit:10;"></rect><rect x="309.02" y="154.07" width="48.69" height="4.64" style="fill:none; stroke:#263238; stroke-miterlimit:10;"></rect><rect x="309.02" y="162.19" width="48.69" height="4.64" style="fill:none; stroke:#263238; stroke-miterlimit:10;"></rect><rect x="309.02" y="170.3" width="48.69" height="4.64" style="fill:none; stroke:#263238; stroke-miterlimit:10;"></rect><rect x="309.02" y="178.42" width="48.69" height="4.64" style="fill:none; stroke:#263238; stroke-miterlimit:10;"></rect><rect x="309.02" y="186.53" width="48.69" height="4.64" style="fill:none; stroke:#263238; stroke-miterlimit:10;"></rect><rect x="309.02" y="194.65" width="48.69" height="4.64" style="fill:none; stroke:#263238; stroke-miterlimit:10;"></rect><rect x="309.02" y="202.76" width="48.69" height="4.64" style="fill:none; stroke:#263238; stroke-miterlimit:10;"></rect><rect x="309.02" y="210.88" width="48.69" height="4.64" style="fill:none; stroke:#263238; stroke-miterlimit:10;"></rect><rect x="309.02" y="218.99" width="48.69" height="4.64" style="fill:none; stroke:#263238; stroke-miterlimit:10;"></rect><rect x="309.02" y="227.11" width="48.69" height="4.64" style="fill:none; stroke:#263238; stroke-miterlimit:10;"></rect><rect x="309.02" y="235.22" width="48.69" height="4.64" style="fill:none; stroke:#263238; stroke-miterlimit:10;"></rect><rect x="309.02" y="243.34" width="48.69" height="4.64" style="fill:none; stroke:#263238; stroke-miterlimit:10;"></rect><rect x="309.02" y="251.45" width="48.69" height="4.64" style="fill:none; stroke:#263238; stroke-miterlimit:10;"></rect><rect x="309.02" y="259.57" width="48.69" height="4.64" style="fill:none; stroke:#263238; stroke-miterlimit:10;"></rect><rect x="309.02" y="267.68" width="48.69" height="4.64" style="fill:none; stroke:#263238; stroke-miterlimit:10;"></rect><rect x="263.81" y="228.27" width="24.35" height="12.75" style="fill:none; stroke:#263238; stroke-miterlimit:10;"></rect><rect x="269.6" y="205.85" width="12.75" height="22.41" style="fill:none; stroke:#263238; stroke-miterlimit:10;"></rect><line x1="167.07" y1="158.59" x2="167.07" y2="269.31" style="fill:none; stroke:#263238; stroke-miterlimit:10;"></line><line x1="306.9" y1="146.46" x2="247.79" y2="146.46" style="fill:none; stroke:#263238; stroke-miterlimit:10;"></line><line x1="306.9" y1="153.06" x2="247.79" y2="153.06" style="fill:none; stroke:#263238; stroke-miterlimit:10;"></line><g><rect x="250.43" y="158.02" width="9.02" height="6.61" style="fill:none; stroke:#263238; stroke-miterlimit:10;"></rect><rect x="261.55" y="158.02" width="9.02" height="6.61" style="fill:none; stroke:#263238; stroke-miterlimit:10;"></rect><rect x="272.67" y="158.02" width="9.02" height="6.61" style="fill:none; stroke:#263238; stroke-miterlimit:10;"></rect><rect x="283.79" y="158.02" width="9.02" height="6.61" style="fill:none; stroke:#263238; stroke-miterlimit:10;"></rect><rect x="294.92" y="158.02" width="9.02" height="6.61" style="fill:none; stroke:#263238; stroke-miterlimit:10;"></rect></g><g><rect x="250.43" y="168.25" width="9.02" height="6.61" style="fill:none; stroke:#263238; stroke-miterlimit:10;"></rect><rect x="261.55" y="168.25" width="9.02" height="6.61" style="fill:none; stroke:#263238; stroke-miterlimit:10;"></rect><rect x="272.67" y="168.25" width="9.02" height="6.61" style="fill:none; stroke:#263238; stroke-miterlimit:10;"></rect><rect x="283.79" y="168.25" width="9.02" height="6.61" style="fill:none; stroke:#263238; stroke-miterlimit:10;"></rect><rect x="294.92" y="168.25" width="9.02" height="6.61" style="fill:none; stroke:#263238; stroke-miterlimit:10;"></rect></g><g><rect x="250.43" y="178.49" width="9.02" height="6.61" style="fill:none; stroke:#263238; stroke-miterlimit:10;"></rect><rect x="261.55" y="178.49" width="9.02" height="6.61" style="fill:none; stroke:#263238; stroke-miterlimit:10;"></rect><rect x="272.67" y="178.49" width="9.02" height="6.61" style="fill:none; stroke:#263238; stroke-miterlimit:10;"></rect><rect x="283.79" y="178.49" width="9.02" height="6.61" style="fill:none; stroke:#263238; stroke-miterlimit:10;"></rect><rect x="294.92" y="178.49" width="9.02" height="6.61" style="fill:none; stroke:#263238; stroke-miterlimit:10;"></rect></g><g><rect x="250.43" y="196.99" width="9.02" height="6.61" style="fill:none; stroke:#263238; stroke-miterlimit:10;"></rect><rect x="261.55" y="196.99" width="9.02" height="6.61" style="fill:none; stroke:#263238; stroke-miterlimit:10;"></rect><rect x="272.67" y="196.99" width="9.02" height="6.61" style="fill:none; stroke:#263238; stroke-miterlimit:10;"></rect><rect x="283.79" y="196.99" width="9.02" height="6.61" style="fill:none; stroke:#263238; stroke-miterlimit:10;"></rect><rect x="294.92" y="196.99" width="9.02" height="6.61" style="fill:none; stroke:#263238; stroke-miterlimit:10;"></rect></g></g><g><polyline points="686.81 66 686.81 156.76 674.9 156.76 674.9 269.51 661.15 269.51 661.15 154.26 635.48 154.26 635.48 33 594.23 33 594.23 158.59 578.64 158.59 578.64 108.63 543.81 108.63 543.81 119.63 514.01 119.63 514.01 268.14 502.1 268.14 502.1 241.1 469.55 241.1 469.55 267.68 453.97 267.68 453.97 133.84 401.26 133.84 401.26 259.43 386.13 259.43" style="fill:none; stroke:#263238; stroke-miterlimit:10;"></polyline><polyline points="694.76 66 686.81 66 686.81 60.05 695.56 60.05" style="fill:none; stroke:#263238; stroke-miterlimit:10;"></polyline><rect x="635.48" y="154.26" width="25.82" height="3.02" transform="translate(1296.78 311.53) rotate(180)" style="fill:none; stroke:#263238; stroke-miterlimit:10;"></rect><rect x="594.23" y="33" width="41.37" height="2.93" transform="translate(1229.83 68.94) rotate(180)" style="fill:none; stroke:#263238; stroke-miterlimit:10;"></rect><rect x="569.34" y="102.4" width="6.02" height="6.22" transform="translate(1144.7 211.03) rotate(180)" style="fill:none; stroke:#263238; stroke-miterlimit:10;"></rect><rect x="553.67" y="105.01" width="3.01" height="3.61" transform="translate(1110.36 213.64) rotate(180)" style="fill:none; stroke:#263238; stroke-miterlimit:10;"></rect><rect x="513.92" y="119.63" width="29.89" height="3.65" transform="translate(1057.72 242.92) rotate(180)" style="fill:none; stroke:#263238; stroke-miterlimit:10;"></rect><rect x="401.27" y="131.12" width="52.7" height="2.72" transform="translate(855.24 264.96) rotate(180)" style="fill:none; stroke:#263238; stroke-miterlimit:10;"></rect><rect x="419.54" y="125.69" width="20.88" height="5.42" transform="translate(859.96 256.81) rotate(180)" style="fill:none; stroke:#263238; stroke-miterlimit:10;"></rect><polyline points="423.96 125.9 423.96 120.88 408.7 120.88 408.7 130.92" style="fill:none; stroke:#263238; stroke-miterlimit:10;"></polyline><polyline points="524.54 118.13 524.54 77.56 476.24 77.56 476.24 111.18 459.62 111.18 459.62 53.98 406.29 53.98 406.29 123.16 391.97 123.16" style="fill:none; stroke:#263238; stroke-miterlimit:10;"></polyline><polyline points="367.29 194.87 367.29 103.24 391.97 103.24 391.97 190.81 398.06 190.81" style="fill:none; stroke:#263238; stroke-miterlimit:10;"></polyline><polyline points="559.32 98.04 559.32 53.21 592.17 53.21" style="fill:none; stroke:#263238; stroke-miterlimit:10;"></polyline><polyline points="684.14 77.94 673.71 77.94 673.71 128.46 662.89 128.46 662.89 99.55 656.2 99.55 656.2 123 651.32 123 651.32 89.13 644.8 89.13 644.8 122.34 637.96 122.34" style="fill:none; stroke:#263238; stroke-miterlimit:10;"></polyline><g><rect x="628.21" y="41.62" width="4.15" height="8.12" transform="translate(1260.57 91.35) rotate(180)" style="fill:none; stroke:#263238; stroke-miterlimit:10;"></rect><rect x="620.75" y="41.62" width="4.15" height="8.12" transform="translate(1245.64 91.35) rotate(180)" style="fill:none; stroke:#263238; stroke-miterlimit:10;"></rect><rect x="613.28" y="41.62" width="4.15" height="8.12" transform="translate(1230.71 91.35) rotate(180)" style="fill:none; stroke:#263238; stroke-miterlimit:10;"></rect><rect x="605.82" y="41.62" width="4.15" height="8.12" transform="translate(1215.78 91.35) rotate(180)" style="fill:none; stroke:#263238; stroke-miterlimit:10;"></rect><rect x="598.35" y="41.62" width="4.15" height="8.12" transform="translate(1200.85 91.35) rotate(180)" style="fill:none; stroke:#263238; stroke-miterlimit:10;"></rect></g><g><rect x="628.21" y="55.34" width="4.15" height="8.12" transform="translate(1260.57 118.79) rotate(180)" style="fill:none; stroke:#263238; stroke-miterlimit:10;"></rect><rect x="620.75" y="55.34" width="4.15" height="8.12" transform="translate(1245.64 118.79) rotate(180)" style="fill:none; stroke:#263238; stroke-miterlimit:10;"></rect><rect x="613.28" y="55.34" width="4.15" height="8.12" transform="translate(1230.71 118.79) rotate(180)" style="fill:none; stroke:#263238; stroke-miterlimit:10;"></rect><rect x="605.82" y="55.34" width="4.15" height="8.12" transform="translate(1215.78 118.79) rotate(180)" style="fill:none; stroke:#263238; stroke-miterlimit:10;"></rect><rect x="598.35" y="55.34" width="4.15" height="8.12" transform="translate(1200.85 118.79) rotate(180)" style="fill:none; stroke:#263238; stroke-miterlimit:10;"></rect></g><g><rect x="628.21" y="69.05" width="4.15" height="8.12" transform="translate(1260.57 146.22) rotate(180)" style="fill:none; stroke:#263238; stroke-miterlimit:10;"></rect><rect x="620.75" y="69.05" width="4.15" height="8.12" transform="translate(1245.64 146.22) rotate(180)" style="fill:none; stroke:#263238; stroke-miterlimit:10;"></rect><rect x="613.28" y="69.05" width="4.15" height="8.12" transform="translate(1230.71 146.22) rotate(180)" style="fill:none; stroke:#263238; stroke-miterlimit:10;"></rect><rect x="605.82" y="69.05" width="4.15" height="8.12" transform="translate(1215.78 146.22) rotate(180)" style="fill:none; stroke:#263238; stroke-miterlimit:10;"></rect><rect x="598.35" y="69.05" width="4.15" height="8.12" transform="translate(1200.85 146.22) rotate(180)" style="fill:none; stroke:#263238; stroke-miterlimit:10;"></rect></g><g><rect x="628.21" y="82.77" width="4.15" height="8.12" transform="translate(1260.57 173.66) rotate(180)" style="fill:none; stroke:#263238; stroke-miterlimit:10;"></rect><rect x="620.75" y="82.77" width="4.15" height="8.12" transform="translate(1245.64 173.66) rotate(180)" style="fill:none; stroke:#263238; stroke-miterlimit:10;"></rect><rect x="613.28" y="82.77" width="4.15" height="8.12" transform="translate(1230.71 173.66) rotate(180)" style="fill:none; stroke:#263238; stroke-miterlimit:10;"></rect><rect x="605.82" y="82.77" width="4.15" height="8.12" transform="translate(1215.78 173.66) rotate(180)" style="fill:none; stroke:#263238; stroke-miterlimit:10;"></rect><rect x="598.35" y="82.77" width="4.15" height="8.12" transform="translate(1200.85 173.66) rotate(180)" style="fill:none; stroke:#263238; stroke-miterlimit:10;"></rect></g><g><rect x="628.21" y="96.49" width="4.15" height="8.12" transform="translate(1260.57 201.1) rotate(180)" style="fill:none; stroke:#263238; stroke-miterlimit:10;"></rect><rect x="620.75" y="96.49" width="4.15" height="8.12" transform="translate(1245.64 201.1) rotate(180)" style="fill:none; stroke:#263238; stroke-miterlimit:10;"></rect><rect x="613.28" y="96.49" width="4.15" height="8.12" transform="translate(1230.71 201.1) rotate(180)" style="fill:none; stroke:#263238; stroke-miterlimit:10;"></rect><rect x="605.82" y="96.49" width="4.15" height="8.12" transform="translate(1215.78 201.1) rotate(180)" style="fill:none; stroke:#263238; stroke-miterlimit:10;"></rect><rect x="598.35" y="96.49" width="4.15" height="8.12" transform="translate(1200.85 201.1) rotate(180)" style="fill:none; stroke:#263238; stroke-miterlimit:10;"></rect></g><g><rect x="628.21" y="110.21" width="4.15" height="8.12" transform="translate(1260.57 228.53) rotate(180)" style="fill:none; stroke:#263238; stroke-miterlimit:10;"></rect><rect x="620.75" y="110.21" width="4.15" height="8.12" transform="translate(1245.64 228.53) rotate(180)" style="fill:none; stroke:#263238; stroke-miterlimit:10;"></rect><rect x="613.28" y="110.21" width="4.15" height="8.12" transform="translate(1230.71 228.53) rotate(180)" style="fill:none; stroke:#263238; stroke-miterlimit:10;"></rect><rect x="605.82" y="110.21" width="4.15" height="8.12" transform="translate(1215.78 228.53) rotate(180)" style="fill:none; stroke:#263238; stroke-miterlimit:10;"></rect><rect x="598.35" y="110.21" width="4.15" height="8.12" transform="translate(1200.85 228.53) rotate(180)" style="fill:none; stroke:#263238; stroke-miterlimit:10;"></rect></g><g><g><rect x="653.66" y="163.54" width="4.15" height="8.12" transform="translate(1311.47 335.19) rotate(180)" style="fill:none; stroke:#263238; stroke-miterlimit:10;"></rect><rect x="646.19" y="163.54" width="4.15" height="8.12" transform="translate(1296.54 335.19) rotate(180)" style="fill:none; stroke:#263238; stroke-miterlimit:10;"></rect><rect x="638.73" y="163.54" width="4.15" height="8.12" transform="translate(1281.61 335.19) rotate(180)" style="fill:none; stroke:#263238; stroke-miterlimit:10;"></rect></g><g><rect x="653.66" y="176.87" width="4.15" height="8.12" transform="translate(1311.47 361.86) rotate(180)" style="fill:none; stroke:#263238; stroke-miterlimit:10;"></rect><rect x="646.19" y="176.87" width="4.15" height="8.12" transform="translate(1296.54 361.86) rotate(180)" style="fill:none; stroke:#263238; stroke-miterlimit:10;"></rect><rect x="638.73" y="176.87" width="4.15" height="8.12" transform="translate(1281.61 361.86) rotate(180)" style="fill:none; stroke:#263238; stroke-miterlimit:10;"></rect></g><g><rect x="653.66" y="190.2" width="4.15" height="8.12" transform="translate(1311.47 388.52) rotate(180)" style="fill:none; stroke:#263238; stroke-miterlimit:10;"></rect><rect x="646.19" y="190.2" width="4.15" height="8.12" transform="translate(1296.54 388.52) rotate(180)" style="fill:none; stroke:#263238; stroke-miterlimit:10;"></rect><rect x="638.73" y="190.2" width="4.15" height="8.12" transform="translate(1281.61 388.52) rotate(180)" style="fill:none; stroke:#263238; stroke-miterlimit:10;"></rect></g><g><rect x="653.66" y="203.53" width="4.15" height="8.12" transform="translate(1311.47 415.18) rotate(180)" style="fill:none; stroke:#263238; stroke-miterlimit:10;"></rect><rect x="646.19" y="203.53" width="4.15" height="8.12" transform="translate(1296.54 415.18) rotate(180)" style="fill:none; stroke:#263238; stroke-miterlimit:10;"></rect><rect x="638.73" y="203.53" width="4.15" height="8.12" transform="translate(1281.61 415.18) rotate(180)" style="fill:none; stroke:#263238; stroke-miterlimit:10;"></rect></g><g><rect x="653.66" y="216.87" width="4.15" height="8.12" transform="translate(1311.47 441.85) rotate(180)" style="fill:none; stroke:#263238; stroke-miterlimit:10;"></rect><rect x="646.19" y="216.87" width="4.15" height="8.12" transform="translate(1296.54 441.85) rotate(180)" style="fill:none; stroke:#263238; stroke-miterlimit:10;"></rect><rect x="638.73" y="216.87" width="4.15" height="8.12" transform="translate(1281.61 441.85) rotate(180)" style="fill:none; stroke:#263238; stroke-miterlimit:10;"></rect></g><g><rect x="653.66" y="230.2" width="4.15" height="8.12" transform="translate(1311.47 468.51) rotate(180)" style="fill:none; stroke:#263238; stroke-miterlimit:10;"></rect><rect x="646.19" y="230.2" width="4.15" height="8.12" transform="translate(1296.54 468.51) rotate(180)" style="fill:none; stroke:#263238; stroke-miterlimit:10;"></rect><rect x="638.73" y="230.2" width="4.15" height="8.12" transform="translate(1281.61 468.51) rotate(180)" style="fill:none; stroke:#263238; stroke-miterlimit:10;"></rect></g><g><rect x="653.66" y="243.53" width="4.15" height="8.12" transform="translate(1311.47 495.18) rotate(180)" style="fill:none; stroke:#263238; stroke-miterlimit:10;"></rect><rect x="646.19" y="243.53" width="4.15" height="8.12" transform="translate(1296.54 495.18) rotate(180)" style="fill:none; stroke:#263238; stroke-miterlimit:10;"></rect><rect x="638.73" y="243.53" width="4.15" height="8.12" transform="translate(1281.61 495.18) rotate(180)" style="fill:none; stroke:#263238; stroke-miterlimit:10;"></rect></g></g><g><rect x="628.21" y="123.93" width="4.15" height="8.12" transform="translate(1260.57 255.97) rotate(180)" style="fill:none; stroke:#263238; stroke-miterlimit:10;"></rect><rect x="620.75" y="123.93" width="4.15" height="8.12" transform="translate(1245.64 255.97) rotate(180)" style="fill:none; stroke:#263238; stroke-miterlimit:10;"></rect><rect x="613.28" y="123.93" width="4.15" height="8.12" transform="translate(1230.71 255.97) rotate(180)" style="fill:none; stroke:#263238; stroke-miterlimit:10;"></rect><rect x="605.82" y="123.93" width="4.15" height="8.12" transform="translate(1215.78 255.97) rotate(180)" style="fill:none; stroke:#263238; stroke-miterlimit:10;"></rect><rect x="598.35" y="123.93" width="4.15" height="8.12" transform="translate(1200.85 255.97) rotate(180)" style="fill:none; stroke:#263238; stroke-miterlimit:10;"></rect></g><g><rect x="628.21" y="137.65" width="4.15" height="8.12" transform="translate(1260.57 283.41) rotate(180)" style="fill:none; stroke:#263238; stroke-miterlimit:10;"></rect><rect x="620.75" y="137.65" width="4.15" height="8.12" transform="translate(1245.64 283.41) rotate(180)" style="fill:none; stroke:#263238; stroke-miterlimit:10;"></rect><rect x="613.28" y="137.65" width="4.15" height="8.12" transform="translate(1230.71 283.41) rotate(180)" style="fill:none; stroke:#263238; stroke-miterlimit:10;"></rect><rect x="605.82" y="137.65" width="4.15" height="8.12" transform="translate(1215.78 283.41) rotate(180)" style="fill:none; stroke:#263238; stroke-miterlimit:10;"></rect><rect x="598.35" y="137.65" width="4.15" height="8.12" transform="translate(1200.85 283.41) rotate(180)" style="fill:none; stroke:#263238; stroke-miterlimit:10;"></rect></g><g><rect x="628.21" y="151.37" width="4.15" height="8.12" transform="translate(1260.57 310.85) rotate(180)" style="fill:none; stroke:#263238; stroke-miterlimit:10;"></rect><rect x="620.75" y="151.37" width="4.15" height="8.12" transform="translate(1245.64 310.85) rotate(180)" style="fill:none; stroke:#263238; stroke-miterlimit:10;"></rect><rect x="613.28" y="151.37" width="4.15" height="8.12" transform="translate(1230.71 310.85) rotate(180)" style="fill:none; stroke:#263238; stroke-miterlimit:10;"></rect><rect x="605.82" y="151.37" width="4.15" height="8.12" transform="translate(1215.78 310.85) rotate(180)" style="fill:none; stroke:#263238; stroke-miterlimit:10;"></rect><rect x="598.35" y="151.37" width="4.15" height="8.12" transform="translate(1200.85 310.85) rotate(180)" style="fill:none; stroke:#263238; stroke-miterlimit:10;"></rect></g><g><rect x="628.21" y="165.08" width="4.15" height="8.12" transform="translate(1260.57 338.28) rotate(180)" style="fill:none; stroke:#263238; stroke-miterlimit:10;"></rect><rect x="620.75" y="165.08" width="4.15" height="8.12" transform="translate(1245.64 338.28) rotate(180)" style="fill:none; stroke:#263238; stroke-miterlimit:10;"></rect><rect x="613.28" y="165.08" width="4.15" height="8.12" transform="translate(1230.71 338.28) rotate(180)" style="fill:none; stroke:#263238; stroke-miterlimit:10;"></rect><rect x="605.82" y="165.08" width="4.15" height="8.12" transform="translate(1215.78 338.28) rotate(180)" style="fill:none; stroke:#263238; stroke-miterlimit:10;"></rect><rect x="598.35" y="165.08" width="4.15" height="8.12" transform="translate(1200.85 338.28) rotate(180)" style="fill:none; stroke:#263238; stroke-miterlimit:10;"></rect></g><g><rect x="628.21" y="178.8" width="4.15" height="8.12" transform="translate(1260.57 365.72) rotate(180)" style="fill:none; stroke:#263238; stroke-miterlimit:10;"></rect><rect x="620.75" y="178.8" width="4.15" height="8.12" transform="translate(1245.64 365.72) rotate(180)" style="fill:none; stroke:#263238; stroke-miterlimit:10;"></rect><rect x="613.28" y="178.8" width="4.15" height="8.12" transform="translate(1230.71 365.72) rotate(180)" style="fill:none; stroke:#263238; stroke-miterlimit:10;"></rect><rect x="605.82" y="178.8" width="4.15" height="8.12" transform="translate(1215.78 365.72) rotate(180)" style="fill:none; stroke:#263238; stroke-miterlimit:10;"></rect><rect x="598.35" y="178.8" width="4.15" height="8.12" transform="translate(1200.85 365.72) rotate(180)" style="fill:none; stroke:#263238; stroke-miterlimit:10;"></rect></g><g><rect x="628.21" y="192.52" width="4.15" height="8.12" transform="translate(1260.57 393.16) rotate(180)" style="fill:none; stroke:#263238; stroke-miterlimit:10;"></rect><rect x="620.75" y="192.52" width="4.15" height="8.12" transform="translate(1245.64 393.16) rotate(180)" style="fill:none; stroke:#263238; stroke-miterlimit:10;"></rect><rect x="613.28" y="192.52" width="4.15" height="8.12" transform="translate(1230.71 393.16) rotate(180)" style="fill:none; stroke:#263238; stroke-miterlimit:10;"></rect><rect x="605.82" y="192.52" width="4.15" height="8.12" transform="translate(1215.78 393.16) rotate(180)" style="fill:none; stroke:#263238; stroke-miterlimit:10;"></rect><rect x="598.35" y="192.52" width="4.15" height="8.12" transform="translate(1200.85 393.16) rotate(180)" style="fill:none; stroke:#263238; stroke-miterlimit:10;"></rect></g><g><rect x="628.21" y="206.24" width="4.15" height="8.12" transform="translate(1260.57 420.59) rotate(180)" style="fill:none; stroke:#263238; stroke-miterlimit:10;"></rect><rect x="620.75" y="206.24" width="4.15" height="8.12" transform="translate(1245.64 420.59) rotate(180)" style="fill:none; stroke:#263238; stroke-miterlimit:10;"></rect><rect x="613.28" y="206.24" width="4.15" height="8.12" transform="translate(1230.71 420.59) rotate(180)" style="fill:none; stroke:#263238; stroke-miterlimit:10;"></rect><rect x="605.82" y="206.24" width="4.15" height="8.12" transform="translate(1215.78 420.59) rotate(180)" style="fill:none; stroke:#263238; stroke-miterlimit:10;"></rect><rect x="598.35" y="206.24" width="4.15" height="8.12" transform="translate(1200.85 420.59) rotate(180)" style="fill:none; stroke:#263238; stroke-miterlimit:10;"></rect></g><g><rect x="628.21" y="219.96" width="4.15" height="8.12" transform="translate(1260.57 448.03) rotate(180)" style="fill:none; stroke:#263238; stroke-miterlimit:10;"></rect><rect x="620.75" y="219.96" width="4.15" height="8.12" transform="translate(1245.64 448.03) rotate(180)" style="fill:none; stroke:#263238; stroke-miterlimit:10;"></rect><rect x="613.28" y="219.96" width="4.15" height="8.12" transform="translate(1230.71 448.03) rotate(180)" style="fill:none; stroke:#263238; stroke-miterlimit:10;"></rect><rect x="605.82" y="219.96" width="4.15" height="8.12" transform="translate(1215.78 448.03) rotate(180)" style="fill:none; stroke:#263238; stroke-miterlimit:10;"></rect><rect x="598.35" y="219.96" width="4.15" height="8.12" transform="translate(1200.85 448.03) rotate(180)" style="fill:none; stroke:#263238; stroke-miterlimit:10;"></rect></g><g><rect x="628.21" y="233.68" width="4.15" height="8.12" transform="translate(1260.57 475.47) rotate(180)" style="fill:none; stroke:#263238; stroke-miterlimit:10;"></rect><rect x="620.75" y="233.68" width="4.15" height="8.12" transform="translate(1245.64 475.47) rotate(180)" style="fill:none; stroke:#263238; stroke-miterlimit:10;"></rect><rect x="613.28" y="233.68" width="4.15" height="8.12" transform="translate(1230.71 475.47) rotate(180)" style="fill:none; stroke:#263238; stroke-miterlimit:10;"></rect><rect x="605.82" y="233.68" width="4.15" height="8.12" transform="translate(1215.78 475.47) rotate(180)" style="fill:none; stroke:#263238; stroke-miterlimit:10;"></rect><rect x="598.35" y="233.68" width="4.15" height="8.12" transform="translate(1200.85 475.47) rotate(180)" style="fill:none; stroke:#263238; stroke-miterlimit:10;"></rect></g><g><rect x="628.21" y="247.78" width="4.15" height="8.12" transform="translate(1260.57 503.68) rotate(180)" style="fill:none; stroke:#263238; stroke-miterlimit:10;"></rect><rect x="620.75" y="247.78" width="4.15" height="8.12" transform="translate(1245.64 503.68) rotate(180)" style="fill:none; stroke:#263238; stroke-miterlimit:10;"></rect><rect x="613.28" y="247.78" width="4.15" height="8.12" transform="translate(1230.71 503.68) rotate(180)" style="fill:none; stroke:#263238; stroke-miterlimit:10;"></rect><rect x="605.82" y="247.78" width="4.15" height="8.12" transform="translate(1215.78 503.68) rotate(180)" style="fill:none; stroke:#263238; stroke-miterlimit:10;"></rect><rect x="598.35" y="247.78" width="4.15" height="8.12" transform="translate(1200.85 503.68) rotate(180)" style="fill:none; stroke:#263238; stroke-miterlimit:10;"></rect></g><line x1="635.48" y1="104.22" x2="635.48" y2="269.61" style="fill:none; stroke:#263238; stroke-miterlimit:10;"></line><line x1="572.07" y1="111.95" x2="572.07" y2="267.3" style="fill:none; stroke:#263238; stroke-miterlimit:10;"></line><line x1="563.96" y1="111.95" x2="563.96" y2="267.3" style="fill:none; stroke:#263238; stroke-miterlimit:10;"></line><line x1="555.84" y1="111.95" x2="555.84" y2="267.3" style="fill:none; stroke:#263238; stroke-miterlimit:10;"></line><line x1="547.73" y1="111.95" x2="547.73" y2="267.3" style="fill:none; stroke:#263238; stroke-miterlimit:10;"></line><line x1="539.61" y1="127.41" x2="539.61" y2="267.3" style="fill:none; stroke:#263238; stroke-miterlimit:10;"></line><line x1="531.5" y1="127.41" x2="531.5" y2="267.3" style="fill:none; stroke:#263238; stroke-miterlimit:10;"></line><line x1="523.38" y1="127.41" x2="523.38" y2="267.3" style="fill:none; stroke:#263238; stroke-miterlimit:10;"></line><rect x="403.59" y="137.84" width="13.29" height="4.64" transform="translate(820.46 280.32) rotate(180)" style="fill:none; stroke:#263238; stroke-miterlimit:10;"></rect><rect x="403.59" y="145.96" width="13.29" height="4.64" transform="translate(820.46 296.55) rotate(180)" style="fill:none; stroke:#263238; stroke-miterlimit:10;"></rect><rect x="403.59" y="154.07" width="13.29" height="4.64" transform="translate(820.46 312.78) rotate(180)" style="fill:none; stroke:#263238; stroke-miterlimit:10;"></rect><rect x="403.59" y="162.19" width="13.29" height="4.64" transform="translate(820.46 329.01) rotate(180)" style="fill:none; stroke:#263238; stroke-miterlimit:10;"></rect><rect x="403.59" y="170.3" width="13.29" height="4.64" transform="translate(820.46 345.24) rotate(180)" style="fill:none; stroke:#263238; stroke-miterlimit:10;"></rect><rect x="403.59" y="178.42" width="13.29" height="4.64" transform="translate(820.46 361.47) rotate(180)" style="fill:none; stroke:#263238; stroke-miterlimit:10;"></rect><rect x="403.59" y="186.53" width="13.29" height="4.64" transform="translate(820.46 377.7) rotate(180)" style="fill:none; stroke:#263238; stroke-miterlimit:10;"></rect><rect x="403.59" y="194.65" width="13.29" height="4.64" transform="translate(820.46 393.93) rotate(180)" style="fill:none; stroke:#263238; stroke-miterlimit:10;"></rect><rect x="403.59" y="202.76" width="13.29" height="4.64" transform="translate(820.46 410.16) rotate(180)" style="fill:none; stroke:#263238; stroke-miterlimit:10;"></rect><rect x="403.59" y="210.88" width="13.29" height="4.64" transform="translate(820.46 426.39) rotate(180)" style="fill:none; stroke:#263238; stroke-miterlimit:10;"></rect><rect x="403.59" y="218.99" width="13.29" height="4.64" transform="translate(820.46 442.62) rotate(180)" style="fill:none; stroke:#263238; stroke-miterlimit:10;"></rect><rect x="403.59" y="227.11" width="13.29" height="4.64" transform="translate(820.46 458.85) rotate(180)" style="fill:none; stroke:#263238; stroke-miterlimit:10;"></rect><rect x="403.59" y="235.22" width="13.29" height="4.64" transform="translate(820.46 475.08) rotate(180)" style="fill:none; stroke:#263238; stroke-miterlimit:10;"></rect><rect x="403.59" y="243.34" width="13.29" height="4.64" transform="translate(820.46 491.31) rotate(180)" style="fill:none; stroke:#263238; stroke-miterlimit:10;"></rect><rect x="403.59" y="251.45" width="13.29" height="4.64" transform="translate(820.46 507.54) rotate(180)" style="fill:none; stroke:#263238; stroke-miterlimit:10;"></rect><rect x="403.59" y="259.57" width="13.29" height="4.64" transform="translate(820.46 523.77) rotate(180)" style="fill:none; stroke:#263238; stroke-miterlimit:10;"></rect><rect x="403.59" y="267.68" width="13.29" height="4.64" transform="translate(820.46 540) rotate(180)" style="fill:none; stroke:#263238; stroke-miterlimit:10;"></rect><rect x="421.26" y="137.84" width="13.29" height="4.64" transform="translate(855.81 280.32) rotate(180)" style="fill:none; stroke:#263238; stroke-miterlimit:10;"></rect><rect x="421.26" y="145.96" width="13.29" height="4.64" transform="translate(855.81 296.55) rotate(180)" style="fill:none; stroke:#263238; stroke-miterlimit:10;"></rect><rect x="421.26" y="154.07" width="13.29" height="4.64" transform="translate(855.81 312.78) rotate(180)" style="fill:none; stroke:#263238; stroke-miterlimit:10;"></rect><rect x="421.26" y="162.19" width="13.29" height="4.64" transform="translate(855.81 329.01) rotate(180)" style="fill:none; stroke:#263238; stroke-miterlimit:10;"></rect><rect x="421.26" y="170.3" width="13.29" height="4.64" transform="translate(855.81 345.24) rotate(180)" style="fill:none; stroke:#263238; stroke-miterlimit:10;"></rect><rect x="421.26" y="178.42" width="13.29" height="4.64" transform="translate(855.81 361.47) rotate(180)" style="fill:none; stroke:#263238; stroke-miterlimit:10;"></rect><rect x="421.26" y="186.53" width="13.29" height="4.64" transform="translate(855.81 377.7) rotate(180)" style="fill:none; stroke:#263238; stroke-miterlimit:10;"></rect><rect x="421.26" y="194.65" width="13.29" height="4.64" transform="translate(855.81 393.93) rotate(180)" style="fill:none; stroke:#263238; stroke-miterlimit:10;"></rect><rect x="421.26" y="202.76" width="13.29" height="4.64" transform="translate(855.81 410.16) rotate(180)" style="fill:none; stroke:#263238; stroke-miterlimit:10;"></rect><rect x="421.26" y="210.88" width="13.29" height="4.64" transform="translate(855.81 426.39) rotate(180)" style="fill:none; stroke:#263238; stroke-miterlimit:10;"></rect><rect x="421.26" y="218.99" width="13.29" height="4.64" transform="translate(855.81 442.62) rotate(180)" style="fill:none; stroke:#263238; stroke-miterlimit:10;"></rect><rect x="421.26" y="227.11" width="13.29" height="4.64" transform="translate(855.81 458.85) rotate(180)" style="fill:none; stroke:#263238; stroke-miterlimit:10;"></rect><rect x="421.26" y="235.22" width="13.29" height="4.64" transform="translate(855.81 475.08) rotate(180)" style="fill:none; stroke:#263238; stroke-miterlimit:10;"></rect><rect x="421.26" y="243.34" width="13.29" height="4.64" transform="translate(855.81 491.31) rotate(180)" style="fill:none; stroke:#263238; stroke-miterlimit:10;"></rect><rect x="421.26" y="251.45" width="13.29" height="4.64" transform="translate(855.81 507.54) rotate(180)" style="fill:none; stroke:#263238; stroke-miterlimit:10;"></rect><rect x="421.26" y="259.57" width="13.29" height="4.64" transform="translate(855.81 523.77) rotate(180)" style="fill:none; stroke:#263238; stroke-miterlimit:10;"></rect><rect x="421.26" y="267.68" width="13.29" height="4.64" transform="translate(855.81 540) rotate(180)" style="fill:none; stroke:#263238; stroke-miterlimit:10;"></rect><rect x="438.94" y="137.84" width="13.29" height="4.64" transform="translate(891.16 280.32) rotate(180)" style="fill:none; stroke:#263238; stroke-miterlimit:10;"></rect><rect x="438.94" y="145.96" width="13.29" height="4.64" transform="translate(891.16 296.55) rotate(180)" style="fill:none; stroke:#263238; stroke-miterlimit:10;"></rect><rect x="438.94" y="154.07" width="13.29" height="4.64" transform="translate(891.16 312.78) rotate(180)" style="fill:none; stroke:#263238; stroke-miterlimit:10;"></rect><rect x="438.94" y="162.19" width="13.29" height="4.64" transform="translate(891.16 329.01) rotate(180)" style="fill:none; stroke:#263238; stroke-miterlimit:10;"></rect><rect x="438.94" y="170.3" width="13.29" height="4.64" transform="translate(891.16 345.24) rotate(180)" style="fill:none; stroke:#263238; stroke-miterlimit:10;"></rect><rect x="438.94" y="178.42" width="13.29" height="4.64" transform="translate(891.16 361.47) rotate(180)" style="fill:none; stroke:#263238; stroke-miterlimit:10;"></rect><rect x="438.94" y="186.53" width="13.29" height="4.64" transform="translate(891.16 377.7) rotate(180)" style="fill:none; stroke:#263238; stroke-miterlimit:10;"></rect><rect x="438.94" y="194.65" width="13.29" height="4.64" transform="translate(891.16 393.93) rotate(180)" style="fill:none; stroke:#263238; stroke-miterlimit:10;"></rect><rect x="438.94" y="202.76" width="13.29" height="4.64" transform="translate(891.16 410.16) rotate(180)" style="fill:none; stroke:#263238; stroke-miterlimit:10;"></rect><rect x="438.94" y="210.88" width="13.29" height="4.64" transform="translate(891.16 426.39) rotate(180)" style="fill:none; stroke:#263238; stroke-miterlimit:10;"></rect><rect x="438.94" y="218.99" width="13.29" height="4.64" transform="translate(891.16 442.62) rotate(180)" style="fill:none; stroke:#263238; stroke-miterlimit:10;"></rect><rect x="438.94" y="227.11" width="13.29" height="4.64" transform="translate(891.16 458.85) rotate(180)" style="fill:none; stroke:#263238; stroke-miterlimit:10;"></rect><rect x="438.94" y="235.22" width="13.29" height="4.64" transform="translate(891.16 475.08) rotate(180)" style="fill:none; stroke:#263238; stroke-miterlimit:10;"></rect><rect x="438.94" y="243.34" width="13.29" height="4.64" transform="translate(891.16 491.31) rotate(180)" style="fill:none; stroke:#263238; stroke-miterlimit:10;"></rect><rect x="438.94" y="251.45" width="13.29" height="4.64" transform="translate(891.16 507.54) rotate(180)" style="fill:none; stroke:#263238; stroke-miterlimit:10;"></rect><rect x="438.94" y="259.57" width="13.29" height="4.64" transform="translate(891.16 523.77) rotate(180)" style="fill:none; stroke:#263238; stroke-miterlimit:10;"></rect><rect x="438.94" y="267.68" width="13.29" height="4.64" transform="translate(891.16 540) rotate(180)" style="fill:none; stroke:#263238; stroke-miterlimit:10;"></rect><rect x="473.15" y="228.27" width="24.35" height="12.75" transform="translate(970.64 469.28) rotate(180)" style="fill:none; stroke:#263238; stroke-miterlimit:10;"></rect><rect x="478.94" y="205.85" width="12.75" height="22.41" transform="translate(970.64 434.12) rotate(180)" style="fill:none; stroke:#263238; stroke-miterlimit:10;"></rect><line x1="594.23" y1="158.59" x2="594.23" y2="269.31" style="fill:none; stroke:#263238; stroke-miterlimit:10;"></line><line x1="454.39" y1="146.46" x2="513.51" y2="146.46" style="fill:none; stroke:#263238; stroke-miterlimit:10;"></line><line x1="454.39" y1="153.06" x2="513.51" y2="153.06" style="fill:none; stroke:#263238; stroke-miterlimit:10;"></line><g><rect x="501.85" y="158.02" width="9.02" height="6.61" transform="translate(1012.72 322.64) rotate(180)" style="fill:none; stroke:#263238; stroke-miterlimit:10;"></rect><rect x="490.73" y="158.02" width="9.02" height="6.61" transform="translate(990.47 322.64) rotate(180)" style="fill:none; stroke:#263238; stroke-miterlimit:10;"></rect><rect x="479.61" y="158.02" width="9.02" height="6.61" transform="translate(968.23 322.64) rotate(180)" style="fill:none; stroke:#263238; stroke-miterlimit:10;"></rect><rect x="468.49" y="158.02" width="9.02" height="6.61" transform="translate(945.99 322.64) rotate(180)" style="fill:none; stroke:#263238; stroke-miterlimit:10;"></rect><rect x="457.37" y="158.02" width="9.02" height="6.61" transform="translate(923.75 322.64) rotate(180)" style="fill:none; stroke:#263238; stroke-miterlimit:10;"></rect></g><g><rect x="501.85" y="168.25" width="9.02" height="6.61" transform="translate(1012.72 343.11) rotate(180)" style="fill:none; stroke:#263238; stroke-miterlimit:10;"></rect><rect x="490.73" y="168.25" width="9.02" height="6.61" transform="translate(990.47 343.11) rotate(180)" style="fill:none; stroke:#263238; stroke-miterlimit:10;"></rect><rect x="479.61" y="168.25" width="9.02" height="6.61" transform="translate(968.23 343.11) rotate(180)" style="fill:none; stroke:#263238; stroke-miterlimit:10;"></rect><rect x="468.49" y="168.25" width="9.02" height="6.61" transform="translate(945.99 343.11) rotate(180)" style="fill:none; stroke:#263238; stroke-miterlimit:10;"></rect><rect x="457.37" y="168.25" width="9.02" height="6.61" transform="translate(923.75 343.11) rotate(180)" style="fill:none; stroke:#263238; stroke-miterlimit:10;"></rect></g><g><rect x="501.85" y="178.49" width="9.02" height="6.61" transform="translate(1012.72 363.59) rotate(180)" style="fill:none; stroke:#263238; stroke-miterlimit:10;"></rect><rect x="490.73" y="178.49" width="9.02" height="6.61" transform="translate(990.47 363.59) rotate(180)" style="fill:none; stroke:#263238; stroke-miterlimit:10;"></rect><rect x="479.61" y="178.49" width="9.02" height="6.61" transform="translate(968.23 363.59) rotate(180)" style="fill:none; stroke:#263238; stroke-miterlimit:10;"></rect><rect x="468.49" y="178.49" width="9.02" height="6.61" transform="translate(945.99 363.59) rotate(180)" style="fill:none; stroke:#263238; stroke-miterlimit:10;"></rect><rect x="457.37" y="178.49" width="9.02" height="6.61" transform="translate(923.75 363.59) rotate(180)" style="fill:none; stroke:#263238; stroke-miterlimit:10;"></rect></g><g><rect x="501.85" y="196.99" width="9.02" height="6.61" transform="translate(1012.72 400.58) rotate(180)" style="fill:none; stroke:#263238; stroke-miterlimit:10;"></rect><rect x="490.73" y="196.99" width="9.02" height="6.61" transform="translate(990.47 400.58) rotate(180)" style="fill:none; stroke:#263238; stroke-miterlimit:10;"></rect><rect x="479.61" y="196.99" width="9.02" height="6.61" transform="translate(968.23 400.58) rotate(180)" style="fill:none; stroke:#263238; stroke-miterlimit:10;"></rect><rect x="468.49" y="196.99" width="9.02" height="6.61" transform="translate(945.99 400.58) rotate(180)" style="fill:none; stroke:#263238; stroke-miterlimit:10;"></rect><rect x="457.37" y="196.99" width="9.02" height="6.61" transform="translate(923.75 400.58) rotate(180)" style="fill:none; stroke:#263238; stroke-miterlimit:10;"></rect></g><line x1="517.12" y1="134.23" x2="576.49" y2="134.23" style="fill:none; stroke:#263238; stroke-miterlimit:10;"></line><line x1="517.12" y1="145.83" x2="576.49" y2="145.83" style="fill:none; stroke:#263238; stroke-miterlimit:10;"></line><line x1="517.12" y1="157.43" x2="576.49" y2="157.43" style="fill:none; stroke:#263238; stroke-miterlimit:10;"></line><line x1="517.12" y1="169.03" x2="576.49" y2="169.03" style="fill:none; stroke:#263238; stroke-miterlimit:10;"></line><line x1="517.12" y1="180.63" x2="576.49" y2="180.63" style="fill:none; stroke:#263238; stroke-miterlimit:10;"></line><line x1="517.12" y1="192.23" x2="576.49" y2="192.23" style="fill:none; stroke:#263238; stroke-miterlimit:10;"></line><line x1="517.12" y1="203.82" x2="576.49" y2="203.82" style="fill:none; stroke:#263238; stroke-miterlimit:10;"></line><line x1="517.12" y1="215.42" x2="576.49" y2="215.42" style="fill:none; stroke:#263238; stroke-miterlimit:10;"></line><line x1="517.12" y1="227.02" x2="576.49" y2="227.02" style="fill:none; stroke:#263238; stroke-miterlimit:10;"></line><line x1="517.12" y1="238.62" x2="576.49" y2="238.62" style="fill:none; stroke:#263238; stroke-miterlimit:10;"></line><line x1="517.12" y1="250.22" x2="576.49" y2="250.22" style="fill:none; stroke:#263238; stroke-miterlimit:10;"></line><line x1="517.12" y1="261.82" x2="576.49" y2="261.82" style="fill:none; stroke:#263238; stroke-miterlimit:10;"></line><line x1="547.22" y1="123.19" x2="576.49" y2="123.19" style="fill:none; stroke:#263238; stroke-miterlimit:10;"></line></g></g></g><g id="freepik--Car--inject-33"><g><path d="M310.57,438.27l369.4-89.87,10.33-28.16s.47-18.54-7.83-35.84c-8.3-17.3-39.37-12.4-53.59,2.19-14.22,14.58-25.16,26.25-25.16,26.25l-168.74,31.54s-22.31-27.9-48.57-27.9-47.4,35-56.88,63.44c-9.48,28.44-18.96,58.34-18.96,58.34Z" style="fill:#263238; stroke:#263238; stroke-linecap:round; stroke-linejoin:round;"></path><g><path d="M628.88,286.6c-17.83,0-33.86,26.12-33.86,60.26s14.46,61.81,32.29,61.81l34.54,1.56v-123.62h-32.97Z" style="fill:#263238; stroke:#263238; stroke-linecap:round; stroke-linejoin:round;"></path><g><ellipse cx="661.85" cy="348.41" rx="32.29" ry="61.81" style="fill:#5e5e5e; stroke:#263238; stroke-linecap:round; stroke-linejoin:round;"></ellipse><g><ellipse cx="664.1" cy="350.09" rx="27.03" ry="54.36" style="fill:#263238; stroke:#263238; stroke-linecap:round; stroke-linejoin:round;"></ellipse><path d="M658.14,297.07c-1.06,.48-2.1,1.08-3.11,1.8l4.53,6.9s9.16,7.19,8.77,10.91c-.38,3.72-3.05,7.93-4.2,9.42-1.14,1.49-7.44,6.44-7.44,6.44l-1.72,6.94s8.01-3.97,9.54-7.44c1.53-3.47,9.16-23.55,8.77-27.02-.38-3.47-1.34-4.96-1.34-4.96l-2.76-3.36c-.3-.11-.59-.23-.89-.32l-10.17,.68Zm12.68,12.42l-8.64-9.03c-1.34,.46-2.42,.85-2.42,.85l2.29-.99,.13,.14c1.84-.63,4.16-1.38,4.83-1.38,1.14,0,3.05,1.74,3.81,4.96,.76,3.22,0,5.45,0,5.45Z" style="fill:#999; stroke:#263238; stroke-linecap:round; stroke-linejoin:round;"></path><path d="M652.31,396s7.06-2.73,8.01-3.47c.95-.74,.19,3.72-1.14,5.7-1.34,1.98-2.48,2.73-2.48,2.73l-4.39-4.96Z" style="fill:#fff; stroke:#263238; stroke-linecap:round; stroke-linejoin:round;"></path><path d="M682.98,311.22l-.15,.5s-3.62-1.74-3.62-.25-2.48,5.21-3.05,5.7c-.57,.5-6.1,8.43-6.1,8.43l-8.77,13.88,21.94-20.57s-.19-3.47,1.72,5.7c1.91,9.17,1.53,14.38,1.53,15.12s-10.3,4.96-9.16,5.95c1.14,.99,.95,2.97,2.67,2.73s9.35-1.98,9.35-1.98l-3.43,9.67v10.41s-10.49-8.68-16.4-10.16c-5.91-1.49-12.02-.25-12.02-.25l1.91,11.9s-5.15-7.93-6.1-8.92-2.48,.25-2.48,.25l-2.48,2.97s-.95,10.16-2.48,11.9c-.78,.89-2.11,1.64-3.22,2.17-.98-3.23-2.5-9.85-2.5-9.85-.76-3.72-.38-5.7-.38-5.7l6.29,1.74s4.58-6.2,4.77-6.94c.19-.74,.19-5.21-.38-7.44-.57-2.23-2.29-3.47-2.29-3.47l2.86-7.19-1.34-.74-3.24,8.92,.19,9.17-7.44-2.73c-.19-14.38,2.67-24.04,2.67-24.04l5.15-.74s1.91-.25,2.48,.25c.57,.5,3.81,10.41,3.81,10.41l.76-2.48s-2.29-8.68-4.2-14.62c-1.91-5.95-4.77-3.97-4.77-3.97,1.72-5.21,5.53-10.41,5.53-10.41l3.43,5.45,5.15-2.97-.95-3.97-3.19-6.16c-10.47,7.49-17.96,27.59-17.96,51.22,0,9.87,1.32,19.1,3.6,27.08h0c.03,.12,.06,.22,.1,.33,.03,.1,.06,.21,.09,.31h0c4.71,15.94,13.35,26.63,23.24,26.63,14.93,0,27.03-24.34,27.03-54.36,0-15.23-3.12-29-8.14-38.87Zm-33.72,80.56c-.76-.99-4.2-7.93-4.2-7.93,0,0,4.39-4.96,5.53-6.69,1.14-1.74,1.53-13.39,1.53-13.39,0,0,6.68,11.9,7.82,15.86,1.14,3.97,.38,5.45-.76,7.19-1.14,1.74-9.16,5.95-9.92,4.96Zm37.2-15.62s-3.62-6.69-5.72-5.45c-2.1,1.24-2.67,2.97-4.58,4.71-1.91,1.74-6.87,.25-6.87,.25,0,0,5.15,14.87,5.91,17.1,.76,2.23-1.14,5.21-2.29,6.2-1.14,.99-2.67,.25-4.01,.25s-4.2,.74-4.2,.74l-4.39,1.49s3.24-6.94,3.62-9.17c.38-2.23,.38-10.16,.38-10.16l5.34,12.64,3.62-1.74s-10.11-25.28-10.68-26.03c-.57-.74-1.53-4.96-1.53-6.2s-.95-3.22-.95-3.22c0,0,7.06,.25,12.02,3.97,4.96,3.72,13.35,8.18,13.92,9.17,.57,.99,.38,5.45,.38,5.45Z" style="fill:#999; stroke:#263238; stroke-linecap:round; stroke-linejoin:round;"></path><path d="M672.91,348.41l-10.3-5.45-4.2,1.98s4.96,2.97,8.39,4.21,6.1-.74,6.1-.74Z" style="fill:#999; stroke:#263238; stroke-linecap:round; stroke-linejoin:round;"></path></g></g></g><g><path d="M342.11,330.68c-23.81,0-43.1,28.43-43.1,63.5s19.3,63.5,43.1,63.5h44.02v-127h-44.02Z" style="fill:#263238; stroke:#263238; stroke-linecap:round; stroke-linejoin:round;"></path><g><ellipse cx="386.13" cy="394.18" rx="43.1" ry="63.5" style="fill:#5e5e5e; stroke:#263238; stroke-linecap:round; stroke-linejoin:round;"></ellipse><g><ellipse cx="389.13" cy="395.91" rx="36.08" ry="55.84" style="fill:#263238; stroke:#263238; stroke-linecap:round; stroke-linejoin:round;"></ellipse><path d="M381.17,341.44c-1.42,.49-2.8,1.11-4.15,1.85l6.05,7.09s12.22,7.38,11.71,11.2c-.51,3.82-4.07,8.15-5.6,9.68-1.53,1.53-9.93,6.62-9.93,6.62l-2.29,7.13s10.7-4.07,12.73-7.64c2.04-3.57,12.22-24.19,11.71-27.76-.51-3.57-1.78-5.09-1.78-5.09l-3.68-3.45c-.39-.12-.79-.23-1.19-.33l-13.58,.7Zm16.92,12.76l-11.54-9.28c-1.78,.47-3.23,.88-3.23,.88l3.06-1.02,.18,.14c2.46-.65,5.56-1.42,6.44-1.42,1.53,0,4.07,1.78,5.09,5.09s0,5.6,0,5.6Z" style="fill:#999; stroke:#263238; stroke-linecap:round; stroke-linejoin:round;"></path><path d="M373.4,443.07s9.42-2.8,10.7-3.57c1.27-.76,.25,3.82-1.53,5.86-1.78,2.04-3.31,2.8-3.31,2.8l-5.86-5.09Z" style="fill:#fff; stroke:#263238; stroke-linecap:round; stroke-linejoin:round;"></path><path d="M414.34,355.98l-.2,.51s-4.84-1.78-4.84-.25-3.31,5.35-4.07,5.86c-.76,.51-8.15,8.66-8.15,8.66l-11.71,14.26,29.28-21.14s-.25-3.56,2.29,5.86c2.55,9.42,2.04,14.77,2.04,15.53s-13.75,5.09-12.22,6.11c1.53,1.02,1.27,3.06,3.56,2.8,2.29-.25,12.48-2.04,12.48-2.04l-4.58,9.93v10.7s-14.01-8.91-21.9-10.44c-7.89-1.53-16.04-.25-16.04-.25l2.55,12.22s-6.88-8.15-8.15-9.17-3.31,.25-3.31,.25l-3.31,3.06s-1.27,10.44-3.31,12.22c-1.04,.91-2.81,1.69-4.3,2.23-1.3-3.32-3.34-10.12-3.34-10.12-1.02-3.82-.51-5.86-.51-5.86l8.4,1.78s6.11-6.37,6.37-7.13c.25-.76,.25-5.35-.51-7.64s-3.06-3.57-3.06-3.57l3.82-7.38-1.78-.76-4.33,9.17,.25,9.42-9.93-2.8c-.25-14.77,3.57-24.7,3.57-24.7l6.88-.76s2.55-.25,3.31,.25c.76,.51,5.09,10.7,5.09,10.7l1.02-2.55s-3.06-8.91-5.6-15.02-6.37-4.07-6.37-4.07c2.29-5.35,7.38-10.7,7.38-10.7l4.58,5.6,6.88-3.06-1.27-4.07-4.26-6.33c-13.98,7.7-23.98,28.34-23.98,52.62,0,10.14,1.76,19.63,4.81,27.82h0c.04,.12,.09,.23,.13,.34,.04,.11,.07,.22,.11,.32h0c6.29,16.37,17.82,27.36,31.02,27.36,19.93,0,36.08-25,36.08-55.84,0-15.65-4.16-29.79-10.87-39.93Zm-45.02,82.76c-1.02-1.02-5.6-8.15-5.6-8.15,0,0,5.86-5.09,7.38-6.88,1.53-1.78,2.04-13.75,2.04-13.75,0,0,8.91,12.22,10.44,16.3,1.53,4.07,.51,5.6-1.02,7.38-1.53,1.78-12.22,6.11-13.24,5.09Zm49.66-16.04s-4.84-6.88-7.64-5.6-3.56,3.06-6.11,4.84c-2.55,1.78-9.17,.25-9.17,.25,0,0,6.88,15.28,7.89,17.57s-1.53,5.35-3.06,6.37c-1.53,1.02-3.56,.25-5.35,.25s-5.6,.76-5.6,.76l-5.86,1.53s4.33-7.13,4.84-9.42c.51-2.29,.51-10.44,.51-10.44l7.13,12.99,4.84-1.78s-13.5-25.97-14.26-26.74c-.76-.76-2.04-5.09-2.04-6.37s-1.27-3.31-1.27-3.31c0,0,9.42,.25,16.04,4.07s17.83,8.4,18.59,9.42c.76,1.02,.51,5.6,.51,5.6Z" style="fill:#999; stroke:#263238; stroke-linecap:round; stroke-linejoin:round;"></path><path d="M400.9,394.18l-13.75-5.6-5.6,2.04s6.62,3.06,11.2,4.33c4.58,1.27,8.15-.76,8.15-.76Z" style="fill:#999; stroke:#263238; stroke-linecap:round; stroke-linejoin:round;"></path></g></g></g><path d="M318.38,217.97c-5.39,.97-10.6,2.69-15.54,5.06-3.43,1.65-8.6,3.96-16.28,7.07-18.74,7.59-73.06,43.65-77.8,45.54s-11.62,3.08-12.57,3.32-30.6,1.19-46.02,4.03c-15.42,2.85-32.5,12.1-41.27,17.08s-21.59,15.42-23.25,16.6c-1.66,1.19-11.62,3.32-14,8.07s-2.61,12.1-2.13,15.18,0,8.3,0,8.3c0,0-11.86,58.59-12.57,61.67-.71,3.08-5.69,14-3.8,16.37,1.9,2.37,7.83,7.35,15.18,8.54,7.35,1.19,29.65-.47,29.65-.47l71.64,9.01s21.11,11.39,30.6,11.86c9.49,.47,74.48,2.85,78.99,1.9,4.51-.95,59.07-8.07,59.07-8.07,0,0-4.27-34.4-.71-53.61,3.56-19.21,14.94-47.44,25.86-57.64,10.91-10.2,23.25-17.32,40.09-11.39,16.84,5.93,26.57,24.91,26.33,50.53-.24,25.62-9.96,60.96-9.96,60.96l45.07-9.25,124.77-28.23s44.12-4.74,44.12-5.46-5.93-26.09-6.88-44.83c-.95-18.74,12.33-44.83,21.82-56.22,9.49-11.39,22.53-8.78,30.36-2.37,7.83,6.4,11.15,28.7,11.15,28.7l2.61,4.27s-.71-20.16-4.27-32.97c-3.56-12.81-6.64-23.96-14.71-32.26-8.07-8.3-17.79-10.2-24.67-10.44s-21.59-3.32-23.48-4.03c-1.9-.71-98.92-25.38-98.92-25.38,0,0-46.49-9.96-103.9-9.49-53.84,.44-60.52,.06-104.58,8.03Z" style="fill:#FF81AE;"></path><path d="M290.04,451.25c1.73-2.6,10.4-30.34,10.4-30.34l-18.64,2.6-188.97-9.1-34.25-12.39c-.88,4.3-1.49,7.26-1.64,7.89-.71,3.08-5.69,14-3.8,16.37,1.9,2.37,7.83,7.35,15.18,8.54,7.35,1.19,29.65-.47,29.65-.47l71.64,9.01s21.11,11.39,30.6,11.86c9.22,.46,70.86,2.71,78.46,1.97,5.46-2.35,10.58-4.78,11.35-5.94Z" style="fill:#5e5e5e; stroke:#263238; stroke-linecap:round; stroke-linejoin:round;"></path><path d="M81,410.13l-19.22-3.6-3.88,6.8-2.27,9.06,3.24,1.62c3.24,1.62,4.53,5.18,7.45,7.12,2.91,1.94,8.74,3.24,15.54,2.27,6.8-.97,15.86-1.62,15.86-1.62l69.92,8.74,6.47-1.29,8.74-10.04-75.14-14.06-14.87-.72-11.84-4.28Z" style="fill:#263238; stroke:#263238; stroke-linecap:round; stroke-linejoin:round;"></path><path d="M498.66,214.8c-18.95-2.53-45.84-5.11-75.7-4.86-53.84,.44-60.52,.06-104.58,8.03-5.39,.97-10.6,2.69-15.54,5.06-3.43,1.65-8.6,3.96-16.28,7.07-16.52,6.69-60.7,35.51-74.17,43.53-.9,.69-5.69,4.28-9.33,5.57-4.03,1.42-5.93,2.61-4.27,3.32,1.66,.71,137.58,9.25,142.56,9.25s62.86-.71,62.86-.71c0,0,4.27,.24,8.78-3.32,4.51-3.56,27.99-41.27,38.19-53.37,10.2-12.1,29.65-17.55,43.88-19.21,1.27-.15,2.45-.26,3.59-.36Z" style="fill:#263238; stroke:#263238; stroke-linecap:round; stroke-linejoin:round;"></path><path d="M306.73,222.28s18.98-5.22,71.64-3.08c52.66,2.13,78.99,4.74,79.23,5.69,.24,.95-21.35,25.62-32.5,40.09-11.15,14.47-14.94,20.87-18.03,22.53-3.08,1.66-56.46,1.66-63.1,1.66s-128.81-6.88-130.7-7.59c-1.9-.71-3.32-2.13-1.66-4.27,1.66-2.13,62.62-39.85,74.96-45.78,12.33-5.93,20.16-9.25,20.16-9.25Z" style="fill:#263238; stroke:#696969; stroke-linecap:round; stroke-linejoin:round;"></path><path d="M625.78,244.81c-.89-.33-22.49-5.88-45.29-11.71-7.56,0-19.96-.48-29.91-3.23-15.42-4.27-45.78-10.91-67.13-4.74-21.35,6.17-37.95,32.97-37.95,32.97l-20.16,33.21s21.59,4.27,54.8-.95c33.21-5.22,97.73-23.01,109.12-29.18,11.39-6.17,12.33-13.05,12.33-13.05,0,0,31.33-.23,33.86-1.17-4.68-.88-8.73-1.8-9.66-2.15Z" style="fill:#5e5e5e; stroke:#263238; stroke-linecap:round; stroke-linejoin:round;"></path><path d="M581.66,253.59s2.13,.24,.47-2.85-18.5-15.42-47.92-19.69c-29.41-4.27-43.41-4.27-54.32,.47-10.91,4.74-29.89,27.52-29.89,27.52l-19.45,30.6s26.33,1.19,52.66-2.61c26.33-3.8,83.5-21.82,90.61-26.09,7.12-4.27,7.83-7.35,7.83-7.35Z" style="fill:#263238; stroke:#263238; stroke-linecap:round; stroke-linejoin:round;"></path><path d="M440.56,273.9l-10.01,15.74s5.66,.25,14.36,.15l-4.35-15.89Z" style="fill:#5e5e5e; stroke:#263238; stroke-linecap:round; stroke-linejoin:round;"></path><path d="M557.23,234.85s23.96,4.98,42.7,13.28" style="fill:none; stroke:#263238; stroke-linecap:round; stroke-linejoin:round;"></path><path d="M682.15,271.8c-2.09-4.66-4.67-8.87-8.22-12.52-.48-.49-.96-.95-1.44-1.4-3.46,1.38-8.76,3.81-8.76,4.48,0,.95,4.27,1.9,10.44,4.74,3.14,1.45,5.96,3.26,7.98,4.69Z" style="fill:#263238; stroke:#263238; stroke-linecap:round; stroke-linejoin:round;"></path><path d="M460.97,303.13s-4.04,1.65-4.04,3.67,0,2.57,2.02,2.94,15.23-.18,17.8-.73c2.57-.55,4.59-2.39,4.04-4.04-.55-1.65-.37-2.39-2.02-3.12-1.65-.73-6.06,0-10.1,.37-4.04,.37-7.71,.92-7.71,.92Z" style="fill:#263238; stroke:#263238; stroke-linecap:round; stroke-linejoin:round;"></path><path d="M158.18,312.16s-15.09,3.95-25.77,14.16c-10.68,10.21-13.46,19.5-7.66,20.89,5.8,1.39,34.12,5.34,43.18,.7,9.05-4.64,30.64-19.03,40.39-22.52,9.75-3.48,14.16-6.73,12.54-7.89-1.62-1.16-50.37-6.96-62.68-5.34Z" style="fill:#263238;"></path><path d="M71.66,324.75c-2.37,4.74-2.61,12.1-2.13,15.18,.47,3.08,0,8.3,0,8.3,0,0-9.58,47.31-12.03,59.14,2.12,5.62,10.08,12.03,12.71,13.66,3.02,1.86,70.1,14.86,112.35,14.16,42.25-.7,109.34-3.02,110.73-3.25s1.62-.23,4.18-2.55c2.55-2.32,22.28-55.94,29.95-72.19,7.66-16.25,12.07-22.52,5.34-28.09-6.73-5.57-35.05,3.25-41.78,5.34-6.73,2.09-69.18,22.28-76.6,22.98-7.43,.7-43.18,.7-43.18,.7l-76.14-5.34s-13-9.05-15.32-18.11c-2.32-9.05,5.93-17.99,5.93-17.99-1.66,1.19-11.62,3.32-14,8.07Z" style="fill:#a6a6a6; stroke:#263238; stroke-linecap:round; stroke-linejoin:round;"></path><path d="M332.75,329.11c-6.73-5.57-35.05,3.25-41.78,5.34-6.73,2.09-69.18,22.28-76.6,22.98-7.43,.7-45.06,1.74-45.06,1.74l-74.26-6.38s-13-9.05-15.32-18.11c-2.32-9.05,5.93-17.99,5.93-17.99-1.66,1.19-11.62,3.32-14,8.07s-2.61,12.1-2.13,15.18c.16,1.04,.21,2.33,.21,3.57l.24,.22s7.43,16.02,19.73,18.34c12.3,2.32,92.62,11.61,113.28,9.52,20.66-2.09,110.26-19.73,110.26-19.73,0,0,1.86-2.32,4.64-3.02,2.47-.62,11.11-1.6,14.99-3.1,3.78-8.23,4.72-12.61-.14-16.63Z" style="fill:#d9d9d9; stroke:#263238; stroke-linecap:round; stroke-linejoin:round;"></path><path d="M83.6,359.68c1.87,1.12,3.91,1.97,6.1,2.39,11.95,2.25,88.02,11.07,111.33,9.67,1.68-2.56,5.99-8.51,13.09-14.29-7.88,.68-44.82,1.72-44.82,1.72l-63.68-5.64c-9.18-.64-17.74-5.25-22.97-12.82-.42-.6-.81-1.22-1.17-1.84,.93,3.59,2.81,11.5,2.58,15.69-.11,1.89-.28,3.64-.47,5.12Z" style="fill:#263238; stroke:#263238; stroke-linecap:round; stroke-linejoin:round;"></path><path d="M206.39,364.84c-1.46,.15-3.35,.25-5.82,.25-10.19,0-105.41-8.05-109.2-9.24-3.15-.98-6.45-4.09-7.48-5.11,.17,1.43,.25,2.75,.19,3.82,0,0,2.08,2.47,5.4,3.65,3.01,1.08,97.05,8.4,114.31,9.74,.75-.95,1.62-2,2.61-3.12Z" style="fill:#bababa; stroke:#263238; stroke-linecap:round; stroke-linejoin:round;"></path><path d="M332.49,345.73l-14.99,3.1-4.64,3.02s.67,5.13-4.26,8.52c-4.93,3.39-2.48,4.97-25.58,8.97-23.11,4.01-84.72,24.65-84.72,24.65,0,0-20.03,23.11-23.72,25.26-3.7,2.16-4.62,2.46-6.16,2.46s-81.33-9.86-85.65-10.47c-4.31-.62-3.39,1.85-4.31-.62-.92-2.46-3.39-41.9-4.31-46.83-.6-3.2-2.97-9.51-4.78-14.19-.58,5.1-9.46,48.03-11.38,58.2,2.12,5.62,9.2,11.6,11.84,13.22,3.02,1.86,70.1,14.86,112.35,14.16,42.25-.7,109.34-3.02,110.73-3.25,1.39-.23,1.62-.23,4.18-2.55,2.55-2.32,22.28-55.94,29.95-72.19,2.14-4.53,4.02-8.28,5.48-11.46Z" style="fill:#FF81AE;"></path><g><path d="M329.82,346.37l-11.93,2.47-4.64,3.02s.12,3.5-2.59,6.59c-3.54,4.04-4.41,5.85-20.94,9.64-2.52,9.53-8.4,33.13-5.7,36.07,3.39,3.7,12.94,12.63,12.94,12.63l32.87-70.43Z" style="fill:#263238; stroke:#263238; stroke-linecap:round; stroke-linejoin:round;"></path><polygon points="317.13 372.56 286.01 382.42 314.05 377.18 317.13 372.56" style="fill:#999; stroke:#263238; stroke-linecap:round; stroke-linejoin:round;"></polygon><polygon points="310.04 388.58 285.05 395.64 307.27 393.2 310.04 388.58" style="fill:#999; stroke:#263238; stroke-linecap:round; stroke-linejoin:round;"></polygon><path d="M328.95,346.55l-11.06,2.29-.39,.11c-1.44,.4-2.73,1.2-3.73,2.32l-.53,.59s-.14,3.5-2.59,6.59c-3.33,4.21-4.41,5.85-20.94,9.64-.36,1.35-.78,2.98-1.24,4.79,4.1-.9,23.64-5.45,29.42-11.23,4.48-4.48,8.8-11.31,11.05-15.1Z" style="fill:#bababa; stroke:#263238; stroke-linecap:round; stroke-linejoin:round;"></path></g><path d="M69.59,355.79s3.39,7.39,3.7,12.94c.31,5.55,.92,20.64,.92,20.64l-12.32,7.39,7.7-40.98Z" style="fill:#263238; stroke:#263238; stroke-linecap:round; stroke-linejoin:round;"></path><line x1="82.53" y1="363.19" x2="80.37" y2="405.39" style="fill:none; stroke:#fff; stroke-linecap:round; stroke-linejoin:round;"></line><line x1="194.06" y1="375.2" x2="171.26" y2="418.64" style="fill:none; stroke:#fff; stroke-linecap:round; stroke-linejoin:round;"></line><path d="M177.08,386.47c-34.2-.62-90.95-7.38-90.95-7.38l.09,2.58-1.23,14.48-.31,3.7s59.29,9.04,83.93,8.11l1.72-3.8,5.24-14.79,1.51-2.9Z" style="fill:#fff; opacity:.49;"></path><path d="M692.91,324.51s-.5-14.05-2.73-26.14c-3.08-5.44-7.87-11.21-15.2-14.67-16.94-8.01-35.74,12.32-41.59,20.03-5.85,7.7-10.47,7.39-10.47-6.78s16.94-26.8,16.94-26.8c0,0-191.63,60.08-193.79,60.38-2.16,.31-3.08,12.32-11.09,13.86-8.01,1.54-8.01-18.18-37.89-25.57-29.88-7.39-55.15,34.81-60.38,42.82-5.24,8.01-7.39,4.93-7.39,4.93l-3.39-4.93s-32.04,76.71-36.66,84.72c-2.05,3.55-9.35,7.58-16.85,10.97,3.6,0,6.06-.06,6.82-.22,4.51-.95,59.07-8.07,59.07-8.07,0,0-4.27-34.4-.71-53.61s14.94-47.44,25.86-57.64c10.91-10.2,23.25-17.32,40.09-11.39,16.84,5.93,26.57,24.91,26.33,50.53-.24,25.62-9.96,60.96-9.96,60.96l45.07-9.25,124.77-28.23s44.12-4.74,44.12-5.46-5.93-26.09-6.88-44.83,12.33-44.83,21.82-56.22c9.49-11.39,22.53-8.78,30.36-2.37,7.83,6.4,11.15,28.7,11.15,28.7l2.61,4.27Z" style="opacity:.3;"></path><path d="M603.5,299.1s-25.88,71.48-28.34,73.32-45.6,12.94-45.6,12.94c0,0,39.43-11.09,43.44-17.25s30.5-69.01,30.5-69.01Z" style="fill:#fff; opacity:.35;"></path><path d="M589.72,400.42s44.12-4.74,44.12-5.46-5.93-26.09-6.88-44.83c0-.19,0-.39-.02-.58-5.75,1.2-15.62,3.48-18.83,5.62-4.62,3.08-13.86,12.02-38.51,20.64-24.65,8.63-121.08,29.88-121.08,29.88l-8.01-7.7-12.77,2.3c-2.92,19.61-7.87,37.6-7.87,37.6l45.07-9.25,124.77-28.23Z" style="fill:#5e5e5e; stroke:#263238; stroke-linecap:round; stroke-linejoin:round;"></path><path d="M457.47,425.11c2.46,.92,5.55,0,5.55,0,0,0,108.14-24.65,113.99-27.73,5.85-3.08,26.5-38.82,31.12-42.21-4.62,3.08-13.86,12.02-38.51,20.64-24.65,8.63-121.08,29.88-121.08,29.88l-8.01-7.7s14.48,26.19,16.94,27.11Z" style="fill:#263238; stroke:#263238; stroke-linecap:round; stroke-linejoin:round;"></path><path d="M336.19,418.68l-36.71,5.24c-4.84,11.13-8.81,19.99-10.22,22.44-2.05,3.55-9.35,7.58-16.85,10.97,.44,0,.86,0,1.26,0h.06c.8,0,1.53-.01,2.18-.02h.1c.28,0,.53-.01,.78-.02h.15c.53-.02,.98-.04,1.35-.07,.05,0,.09,0,.13-.01,.13-.01,.25-.02,.36-.03,.04,0,.08,0,.12-.01,.13-.02,.24-.03,.33-.05,4.51-.95,59.07-8.07,59.07-8.07,0,0-1.83-14.77-2.1-30.37Z" style="fill:#263238; stroke:#263238; stroke-linecap:round; stroke-linejoin:round;"></path><g><path d="M441.67,381.84c-.43,5.68-.84,9.07-.84,9.07" style="fill:none; stroke:#263238; stroke-linecap:round; stroke-linejoin:round;"></path><path d="M429.43,295.1s10.78,14.17,12.63,42.21c.95,14.37,.6,28.1,.04,38.06" style="fill:none; stroke:#263238; stroke-linecap:round; stroke-linejoin:round;"></path><path d="M582.01,277.94c2.47,4.36,4.55,10.34,4.55,18.08,0,19.1-20.64,70.24-26.5,77.64" style="fill:none; stroke:#263238; stroke-linecap:round; stroke-linejoin:round;"></path><path d="M573.93,268.6s2.51,1.65,5.29,5.18" style="fill:none; stroke:#263238; stroke-linecap:round; stroke-linejoin:round;"></path><path d="M373.54,295.84c4.88-1,10.03-1.91,15.47-2.71" style="fill:none; stroke:#263238; stroke-linecap:round; stroke-linejoin:round;"></path><path d="M296.46,332.53s17.23-22.57,69.48-35" style="fill:none; stroke:#263238; stroke-linecap:round; stroke-linejoin:round;"></path></g><path d="M154.6,282.29c-2.67,.86-5.04,1.91-6.9,3.2-12.62,8.8-40.54,40.54-44.74,48.18,0,0,30.98-27.15,48.18-36.33,17.21-9.18,45.05-18.37,45.05-18.37-.86,.22-25.55,1.02-41.6,3.32Z" style="opacity:.3;"></path><path d="M222.65,345.91s68.07-46.27,132.7-50.86c0,0-36.33,1.15-78.4,15.3-42.07,14.15-54.3,35.56-54.3,35.56Z" style="fill:#fff; opacity:.61;"></path><path d="M289.72,368.09c-.9,.46-3.16,.71-6.32,1.26-23.11,4.01-84.72,24.65-84.72,24.65,0,0-20.03,23.11-23.72,25.26s-4.62,2.46-6.16,2.46-81.33-9.86-85.65-10.47c-4.31-.62-3.39,1.85-4.31-.62-.92-2.46-3.39-41.9-4.31-46.83-.6-3.2-3.28-10.44-5.09-15.11-.27,1.32-1.11,5.5-2.24,11.08l7.11,59.44,93.73,12.65,114.67-31.93,7.02-31.84Z" style="opacity:.3;"></path><path d="M378.37,219.19c-52.66-2.13-71.64,3.08-71.64,3.08,0,0-7.83,3.32-20.16,9.25-12.33,5.93-73.3,43.65-74.96,45.78-1.66,2.13-.24,3.56,1.66,4.27,.39,.15,5.88,.55,14.4,1.11,60.37-15.7,162.73-42.31,225.74-58.68-9.33-1.23-34.3-3.17-75.04-4.82Z" style="fill:#fff; opacity:.24; stroke:#263238; stroke-linecap:round; stroke-linejoin:round;"></path><path d="M252.12,436.31l-44.67,18.13,62.8,.97s13.92-5.83,16.51-8.74c2.59-2.91,5.83-11.33,5.83-11.33l-40.46,.97Z" style="fill:#263238; stroke:#263238; stroke-linecap:round; stroke-linejoin:round;"></path><path d="M158.18,312.16s-15.09,3.95-25.77,14.16c-7.55,7.22-11.14,13.97-10.55,17.8l88.13-28.46c-15.5-2.02-43-4.67-51.81-3.5Z" style="fill:#fff; opacity:.24; stroke:#263238; stroke-linecap:round; stroke-linejoin:round;"></path><path d="M320.13,346.04s4.83-8.16-2.72-10.27c-7.55-2.11-87.3,20.54-87.3,20.54l58.6-19.03s35.04-9.67,40.78-7.55c5.74,2.11,5.44,6.95,1.51,14.8l-10.88,1.51Z" style="fill:#fff;"></path><path d="M313.79,337.28s-16.31,2.42-17.82,3.93-2.11,9.06,0,9.67c2.11,.6,10.87,.6,14.5-.91s4.83-4.23,4.83-6.34,0-7.25-1.51-6.34Z" style="fill:#fff;"></path><path d="M73.33,326.71l3.62,22.05-7.44-8.83s3.79,7.38,6.91,11.21c3.13,3.82,6.25,6.95,6.25,6.95,0,0-.52-6.43-.87-10.94-.35-4.52-4.86-14.24-4.17-18.76,.69-4.52,3.3-8.16,3.3-8.16,0,0-8.12,1.86-7.62,6.49Z" style="fill:#fff;"></path><path d="M289.72,368.09s-15.35,3.02-27.04,6.01" style="fill:none; stroke:#263238; stroke-linecap:round; stroke-linejoin:round;"></path><path d="M249.08,377.9l-50.41,16.09s-23.82,27.95-27.9,27.68" style="fill:none; stroke:#263238; stroke-linecap:round; stroke-linejoin:round;"></path><line x1="85.96" y1="411.07" x2="161.27" y2="420.59" style="fill:none; stroke:#263238; stroke-linecap:round; stroke-linejoin:round;"></line><path d="M70.72,351.76s3.1,8.8,3.8,12.04c.7,3.24,3.7,41.87,3.7,41.87" style="fill:none; stroke:#263238; stroke-linecap:round; stroke-linejoin:round;"></path><path d="M318.38,217.97c-5.39,.97-10.6,2.69-15.54,5.06-3.43,1.65-8.6,3.96-16.28,7.07-18.74,7.59-73.06,43.65-77.8,45.54s-11.62,3.08-12.57,3.32-30.6,1.19-46.02,4.03c-15.42,2.85-32.5,12.1-41.27,17.08s-21.59,15.42-23.25,16.6c-1.66,1.19-11.62,3.32-14,8.07s-2.61,12.1-2.13,15.18,0,8.3,0,8.3c0,0-11.86,58.59-12.57,61.67-.71,3.08-5.69,14-3.8,16.37,1.9,2.37,7.83,7.35,15.18,8.54,7.35,1.19,29.65-.47,29.65-.47l71.64,9.01s21.11,11.39,30.6,11.86c9.49,.47,74.48,2.85,78.99,1.9,4.51-.95,59.07-8.07,59.07-8.07,0,0-4.27-34.4-.71-53.61,3.56-19.21,14.94-47.44,25.86-57.64,10.91-10.2,23.25-17.32,40.09-11.39,16.84,5.93,26.57,24.91,26.33,50.53-.24,25.62-9.96,60.96-9.96,60.96l45.07-9.25,124.77-28.23s44.12-4.74,44.12-5.46-5.93-26.09-6.88-44.83c-.95-18.74,12.33-44.83,21.82-56.22,9.49-11.39,22.53-8.78,30.36-2.37,7.83,6.4,11.15,28.7,11.15,28.7l2.61,4.27s-.71-20.16-4.27-32.97c-3.56-12.81-6.64-23.96-14.71-32.26-8.07-8.3-17.79-10.2-24.67-10.44s-21.59-3.32-23.48-4.03c-1.9-.71-98.92-25.38-98.92-25.38,0,0-46.49-9.96-103.9-9.49-53.84,.44-60.52,.06-104.58,8.03Z" style="fill:none; stroke:#263238; stroke-linecap:round; stroke-linejoin:round;"></path></g></g></svg>
